<svg width="53" height="53" fill="none" xmlns="http://www.w3.org/2000/svg"><path d="M26.499 12.886l-.518.157L5.276 19.98.57 21.53l2.741.878V36.9c-.988.575-1.656 1.623-1.656 2.85a3.313 3.313 0 006.625 0 3.285 3.285 0 00-1.656-2.85V23.552l3.312 1.085v8.488c0 1.358.829 2.484 1.812 3.263.984.773 2.207 1.32 3.674 1.81 2.938.977 6.81 1.552 11.077 1.552 4.266 0 8.139-.573 11.077-1.553 1.467-.489 2.69-1.036 3.673-1.81.984-.778 1.812-1.904 1.812-3.262v-8.488l4.66-1.554 4.707-1.552-4.71-1.553-20.702-6.935-.517-.157zm0 3.47l15.527 5.175L26.5 26.707l-15.527-5.176L26.5 16.356zm-13.25 9.42l12.733 4.244.517.155.518-.157 12.732-4.243v7.35c0 .017.006.209-.519.621-.523.414-1.462.936-2.69 1.347-2.456.816-6.074 1.345-10.041 1.345-3.967 0-7.586-.527-10.042-1.347-1.226-.409-2.166-.932-2.69-1.345-.526-.414-.518-.604-.518-.62v-7.351.001z" fill="#82BAC8"/></svg>