<svg width="20" height="19" fill="none" xmlns="http://www.w3.org/2000/svg"><path d="M9.035 2.927c.3-.921 1.603-.921 1.902 0l1.182 3.637a1 1 0 00.951.691h3.825c.968 0 1.371 1.24.587 1.81l-3.094 2.247a1 1 0 00-.363 1.118l1.182 3.638c.3.92-.755 1.687-1.54 1.118l-3.093-2.248a1 1 0 00-1.176 0l-3.094 2.248c-.783.57-1.838-.197-1.539-1.118l1.182-3.638a1 1 0 00-.363-1.118L2.49 9.064c-.784-.57-.381-1.809.588-1.809h3.824a1 1 0 00.951-.69l1.182-3.638z" fill="#FFC658"/><path d="M10.588 2.338c.269.081.454.316.53.587l1.018 3.602a1 1 0 00.962.728h3.795c.969 0 1.371 1.24.588 1.81l-3.094 2.247a1 1 0 00-.364 1.118l1.182 3.638c.3.921-.755 1.687-1.539 1.118l-3.27-2.376a1 1 0 01-.412-.809V9c0-.025.014-6.001.014-6.5 0-.28.314-.246.59-.162z" fill="#BABABA"/></svg>