<?xml version="1.0"?>
<svg xmlns="http://www.w3.org/2000/svg" xmlns:xlink="http://www.w3.org/1999/xlink" xmlns:svgjs="http://svgjs.com/svgjs" version="1.1" width="512" height="512" x="0" y="0" viewBox="0 0 484 483" style="enable-background:new 0 0 512 512" xml:space="preserve" class=""><g><path xmlns="http://www.w3.org/2000/svg" d="m378 .5c-58.542969 0-106 47.457031-106 106s47.457031 106 106 106 106-47.457031 106-106c-.066406-58.515625-47.484375-105.933594-106-106zm0 200c-51.914062 0-94-42.085938-94-94s42.085938-94 94-94 94 42.085938 94 94c-.058594 51.890625-42.109375 93.941406-94 94zm0 0" fill="#c6a47f" data-original="#000000" style="" class=""/><path xmlns="http://www.w3.org/2000/svg" d="m351.09375 267.648438c-21.285156-8.511719-49.453125-13.199219-79.324219-13.199219-13.96875-.03125-27.917969 1.050781-41.71875 3.230469v-162.84375c0-14.269532-12.679687-27.203126-35.699219-36.410157-21.285156-8.515625-49.453124-13.199219-79.320312-13.199219-29.871094 0-58.042969 4.683594-79.332031 13.199219-23.019531 9.210938-35.699219 22.140625-35.699219 36.410157v261.664062c0 14.269531 12.679688 27.199219 35.699219 36.40625 21.285156 8.515625 49.453125 13.203125 79.320312 13.203125 13.972657.035156 27.925781-1.046875 41.722657-3.238281v32.019531c0 14.265625 12.679687 27.199219 35.699218 36.40625 21.285156 8.515625 49.453125 13.199219 79.320313 13.199219 29.867187 0 58.039062-4.6875 79.324219-13.199219 23.023437-9.207031 35.699218-22.140625 35.699218-36.40625v-130.832031c.015625-14.269532-12.667968-27.199219-35.691406-36.410156zm-236.070312-210.425782c60.714843 0 103.027343 19.824219 103.027343 37.613282 0 17.785156-42.3125 37.609374-103.027343 37.609374-60.714844 0-103.023438-19.824218-103.023438-37.609374 0-17.789063 42.3125-37.613282 103.023438-37.613282zm-103.023438 60.320313c5.882812 5.125 13.839844 9.753906 23.699219 13.699219 21.285156 8.515624 49.453125 13.203124 79.320312 13.203124 29.867188 0 58.039063-4.6875 79.324219-13.203124 9.863281-3.941407 17.820312-8.574219 23.699219-13.699219v20.902343c0 17.789063-42.3125 37.609376-103.027344 37.609376s-103.015625-19.820313-103.015625-37.609376zm0 43.609375c5.882812 5.125 13.839844 9.753906 23.699219 13.703125 21.285156 8.511719 49.453125 13.199219 79.320312 13.199219 29.867188 0 58.039063-4.691407 79.324219-13.199219 9.863281-3.949219 17.820312-8.578125 23.699219-13.703125v20.902344c0 17.789062-42.3125 37.609374-103.027344 37.609374s-103.015625-19.820312-103.015625-37.609374zm0 43.613281c5.882812 5.121094 13.839844 9.753906 23.699219 13.699219 21.285156 8.511718 49.453125 13.199218 79.320312 13.199218 29.867188 0 58.039063-4.6875 79.324219-13.199218 9.863281-3.945313 17.820312-8.574219 23.699219-13.699219v20.898437c0 17.789063-42.3125 37.609376-103.027344 37.609376s-103.015625-19.820313-103.015625-37.609376zm144.746094 185.945313c-13.785156 2.304687-27.742188 3.441406-41.722656 3.398437-60.710938-.003906-103.023438-19.824219-103.023438-37.609375v-20.898438c5.882812 5.121094 13.839844 9.753907 23.699219 13.699219 21.285156 8.511719 49.453125 13.199219 79.320312 13.199219 13.972657.035156 27.925781-1.046875 41.722657-3.238281zm0-43.613282c-13.785156 2.304688-27.742188 3.445313-41.722656 3.398438-60.710938.003906-103.023438-19.820313-103.023438-37.609375v-20.902344c5.882812 5.125 13.839844 9.753906 23.699219 13.699219 21.285156 8.515625 49.453125 13.203125 79.320312 13.203125 13.972657.035156 27.925781-1.050781 41.722657-3.242188zm.015625-43.613281c-13.792969 2.308594-27.753907 3.445313-41.738281 3.402344-60.710938 0-103.023438-19.824219-103.023438-37.613281v-20.898438c5.882812 5.121094 13.839844 9.753906 23.699219 13.699219 21.285156 8.515625 49.453125 13.199219 79.320312 13.199219 29.867188 0 58.039063-4.6875 79.324219-13.199219 9.863281-3.945313 17.820312-8.574219 23.699219-13.699219v11.578125c-8.726563 1.867187-17.289063 4.445313-25.601563 7.699219-22.707031 9.085937-35.339844 21.792968-35.679687 35.832031zm218.039062 131.40625c0 17.789063-42.3125 37.609375-103.027343 37.609375-60.714844 0-103.027344-19.820312-103.027344-37.609375v-20.902344c5.886718 5.125 13.84375 9.753907 23.703125 13.703125 21.28125 8.511719 49.453125 13.199219 79.320312 13.199219 29.867188 0 58.039063-4.691406 79.320313-13.199219 9.863281-3.949218 17.824218-8.578125 23.699218-13.703125zm0-43.613281c0 17.789062-42.3125 37.613281-103.027343 37.613281-60.714844 0-103.027344-19.824219-103.027344-37.613281v-20.898438c5.886718 5.125 13.84375 9.753906 23.703125 13.699219 21.28125 8.515625 49.453125 13.199219 79.320312 13.199219 29.867188 0 58.039063-4.6875 79.320313-13.199219 9.863281-3.945313 17.824218-8.574219 23.699218-13.699219zm0-43.609375c0 17.789062-42.3125 37.609375-103.027343 37.609375-60.714844 0-103.027344-19.820313-103.027344-37.609375v-20.898438c5.886718 5.125 13.84375 9.753907 23.703125 13.699219 21.28125 8.511719 49.453125 13.199219 79.320312 13.199219 29.867188 0 58.039063-4.6875 79.320313-13.199219 9.863281-3.945312 17.824218-8.574219 23.699218-13.699219zm-103.027343-6c-60.714844 0-103.027344-19.820313-103.027344-37.609375 0-17.789063 42.3125-37.609375 103.027344-37.609375 60.714843 0 103.027343 19.820312 103.027343 37.609375 0 17.789062-42.316406 37.609375-103.03125 37.609375zm0 0" fill="#c6a47f" data-original="#000000" style="" class=""/><path xmlns="http://www.w3.org/2000/svg" d="m434.5 54.023438c0-3.3125-2.6875-6-6-6s-6 2.6875-6 6v10.628906l-40.96875-29.824219c-2.105469-1.53125-4.957031-1.53125-7.0625 0l-70 50.960937c-2.101562 1.53125-2.976562 4.238282-2.175781 6.710938.804687 2.46875 3.109375 4.140625 5.707031 4.140625h14.5v76.679687c0 3.3125 2.6875 6 6 6h99c3.3125 0 6-2.6875 6-6v-76.679687h14.5c2.597656 0 4.902344-1.671875 5.707031-4.140625.800781-2.472656-.074219-5.179688-2.175781-6.710938l-17.03125-12.398437zm-46.015625 113.300781h-20.964844v-16.566407h20.960938zm39.015625-82.683594c-3.3125 0-6 2.6875-6 6v76.679687h-21.019531v-22.5625c0-3.316406-2.6875-6-6-6h-32.960938c-3.3125 0-6 2.683594-6 6v22.5625h-21.019531v-76.679687c0-3.3125-2.6875-6-6-6h-2.066406l51.566406-37.539063 51.5625 37.539063zm0 0" fill="#c6a47f" data-original="#000000" style="" class=""/></g></svg>
