<?xml version="1.0"?>
<svg xmlns="http://www.w3.org/2000/svg" xmlns:xlink="http://www.w3.org/1999/xlink" xmlns:svgjs="http://svgjs.com/svgjs" version="1.1" width="512" height="512" x="0" y="0" viewBox="0 0 511 511.99897" style="enable-background:new 0 0 512 512" xml:space="preserve" class=""><g><path xmlns="http://www.w3.org/2000/svg" d="m183.667969 257.488281c-31.855469 0-57.773438 25.921875-57.773438 57.78125 0 16.433594 6.953125 31.867188 18.9375 42.734375v38.847656c0 21.414063 17.421875 38.835938 38.835938 38.835938 21.410156 0 38.832031-17.421875 38.832031-38.835938v-38.847656c11.984375-10.867187 18.9375-26.300781 18.9375-42.734375 0-31.859375-25.917969-57.78125-57.769531-57.78125zm14.730469 80.050781-6.9375 4.601563v54.710937c0 4.300782-3.496094 7.796876-7.792969 7.796876s-7.792969-3.496094-7.792969-7.796876v-54.710937l-6.9375-4.601563c-7.515625-4.988281-12-13.3125-12-22.269531 0-14.746093 11.992188-26.738281 26.730469-26.738281s26.726562 11.992188 26.726562 26.738281c0 8.957031-4.484375 17.28125-11.996093 22.269531zm0 0" fill="#232323" data-original="#000000" style="" class=""/><path xmlns="http://www.w3.org/2000/svg" d="m321.425781 186.546875v-56.515625c0-71.699219-58.335937-130.03125-130.035156-130.03125h-15.449219c-71.699218 0-130.035156 58.332031-130.035156 130.03125v56.515625c-26.601562 10.847656-45.40625 36.980469-45.40625 67.4375v185.207031c0 40.148438 32.660156 72.808594 72.804688 72.808594h220.722656c40.144531 0 72.804687-32.660156 72.804687-72.808594v-185.207031c0-30.457031-18.804687-56.589844-45.40625-67.4375zm-244.476562-56.515625c0-54.582031 44.410156-98.988281 98.992187-98.988281h15.449219c54.585937 0 98.992187 44.40625 98.992187 98.988281v51.148438h-33.03125v-51.148438c0-36.371094-29.589843-65.957031-65.960937-65.957031h-15.449219c-36.371094 0-65.960937 29.585937-65.960937 65.957031v51.148438h-33.03125zm149.359375 51.148438h-85.285156v-51.148438c0-19.25 15.664062-34.917969 34.917968-34.917969h15.449219c19.253906 0 34.917969 15.667969 34.917969 34.917969zm109.480468 258.011718c0 23.03125-18.734374 41.765625-41.761718 41.765625h-220.722656c-23.027344 0-41.761719-18.734375-41.761719-41.765625v-185.207031c0-23.027344 18.734375-41.761719 41.761719-41.761719h220.722656c23.027344 0 41.761718 18.734375 41.761718 41.761719zm0 0" fill="#232323" data-original="#000000" style="" class=""/></g></svg>
