<svg xmlns="http://www.w3.org/2000/svg" width="99" height="101" viewBox="0 0 99 101"><g><g><g><path fill="#0234c1" d="M5.5 0a5.5 5.5 0 1 1-.001 10.999 5.5 5.5 0 0 1 .001-11z"/></g><g><path fill="#0234c1" d="M5.5 30a5.5 5.5 0 1 1-.001 10.999 5.5 5.5 0 0 1 .001-11z"/></g><g><path fill="#0234c1" d="M5.5 60a5.5 5.5 0 1 1-.001 10.999 5.5 5.5 0 0 1 .001-11z"/></g><g><path fill="#0234c1" d="M5.5 90a5.5 5.5 0 1 1-.001 10.999 5.5 5.5 0 0 1 .001-11z"/></g><g><path fill="#0234c1" d="M34.5 0a5.5 5.5 0 1 1 0 10.999 5.5 5.5 0 0 1 0-11z"/></g><g><path fill="#0234c1" d="M34.5 30a5.5 5.5 0 1 1 0 10.999 5.5 5.5 0 0 1 0-11z"/></g><g><path fill="#0234c1" d="M34.5 60a5.5 5.5 0 1 1 0 10.999 5.5 5.5 0 0 1 0-11z"/></g><g><path fill="#0234c1" d="M34.5 90a5.5 5.5 0 1 1 0 10.999 5.5 5.5 0 0 1 0-11z"/></g><g><path fill="#0234c1" d="M64.5 0a5.5 5.5 0 1 1 0 10.999 5.5 5.5 0 0 1 0-11z"/></g><g><path fill="#0234c1" d="M64.5 30a5.5 5.5 0 1 1 0 10.999 5.5 5.5 0 0 1 0-11z"/></g><g><path fill="#0234c1" d="M64.5 60a5.5 5.5 0 1 1 0 10.999 5.5 5.5 0 0 1 0-11z"/></g><g><path fill="#0234c1" d="M64.5 90a5.5 5.5 0 1 1 0 10.999 5.5 5.5 0 0 1 0-11z"/></g><g><path fill="#0234c1" d="M93.5 0a5.5 5.5 0 1 1 0 10.999 5.5 5.5 0 0 1 0-11z"/></g><g><path fill="#0234c1" d="M93.5 30a5.5 5.5 0 1 1 0 10.999 5.5 5.5 0 0 1 0-11z"/></g><g><path fill="#0234c1" d="M93.5 60a5.5 5.5 0 1 1 0 10.999 5.5 5.5 0 0 1 0-11z"/></g><g><path fill="#0234c1" d="M93.5 90a5.5 5.5 0 1 1 0 10.999 5.5 5.5 0 0 1 0-11z"/></g></g></g></svg>