<svg xmlns="http://www.w3.org/2000/svg" width="101" height="99" viewBox="0 0 101 99"><g><g><g><path fill="#0234c1" d="M95.5 0a5.5 5.5 0 1 1 0 11 5.5 5.5 0 0 1 0-11z"/><path fill="#c6a47f" d="M95.5 0a5.5 5.5 0 1 1 0 11 5.5 5.5 0 0 1 0-11z"/></g><g><path fill="#0234c1" d="M65.5 0a5.5 5.5 0 1 1 0 11 5.5 5.5 0 0 1 0-11z"/><path fill="#c6a47f" d="M65.5 0a5.5 5.5 0 1 1 0 11 5.5 5.5 0 0 1 0-11z"/></g><g><path fill="#0234c1" d="M35.5 0a5.5 5.5 0 1 1 0 11 5.5 5.5 0 0 1 0-11z"/><path fill="#c6a47f" d="M35.5 0a5.5 5.5 0 1 1 0 11 5.5 5.5 0 0 1 0-11z"/></g><g><path fill="#0234c1" d="M5.5 0a5.5 5.5 0 1 1 0 11 5.5 5.5 0 0 1 0-11z"/><path fill="#c6a47f" d="M5.5 0a5.5 5.5 0 1 1 0 11 5.5 5.5 0 0 1 0-11z"/></g><g><path fill="#0234c1" d="M95.5 29a5.5 5.5 0 1 1 0 11 5.5 5.5 0 0 1 0-11z"/><path fill="#c6a47f" d="M95.5 29a5.5 5.5 0 1 1 0 11 5.5 5.5 0 0 1 0-11z"/></g><g><path fill="#0234c1" d="M65.5 29a5.5 5.5 0 1 1 0 11 5.5 5.5 0 0 1 0-11z"/><path fill="#c6a47f" d="M65.5 29a5.5 5.5 0 1 1 0 11 5.5 5.5 0 0 1 0-11z"/></g><g><path fill="#0234c1" d="M35.5 29a5.5 5.5 0 1 1 0 11 5.5 5.5 0 0 1 0-11z"/><path fill="#c6a47f" d="M35.5 29a5.5 5.5 0 1 1 0 11 5.5 5.5 0 0 1 0-11z"/></g><g><path fill="#0234c1" d="M5.5 29a5.5 5.5 0 1 1 0 11 5.5 5.5 0 0 1 0-11z"/><path fill="#c6a47f" d="M5.5 29a5.5 5.5 0 1 1 0 11 5.5 5.5 0 0 1 0-11z"/></g><g><path fill="#0234c1" d="M95.5 59a5.5 5.5 0 1 1 0 11 5.5 5.5 0 0 1 0-11z"/><path fill="#c6a47f" d="M95.5 59a5.5 5.5 0 1 1 0 11 5.5 5.5 0 0 1 0-11z"/></g><g><path fill="#0234c1" d="M65.5 59a5.5 5.5 0 1 1 0 11 5.5 5.5 0 0 1 0-11z"/><path fill="#c6a47f" d="M65.5 59a5.5 5.5 0 1 1 0 11 5.5 5.5 0 0 1 0-11z"/></g><g><path fill="#0234c1" d="M35.5 59a5.5 5.5 0 1 1 0 11 5.5 5.5 0 0 1 0-11z"/><path fill="#c6a47f" d="M35.5 59a5.5 5.5 0 1 1 0 11 5.5 5.5 0 0 1 0-11z"/></g><g><path fill="#0234c1" d="M5.5 59a5.5 5.5 0 1 1 0 11 5.5 5.5 0 0 1 0-11z"/><path fill="#c6a47f" d="M5.5 59a5.5 5.5 0 1 1 0 11 5.5 5.5 0 0 1 0-11z"/></g><g><path fill="#0234c1" d="M95.5 88a5.5 5.5 0 1 1 0 11 5.5 5.5 0 0 1 0-11z"/><path fill="#c6a47f" d="M95.5 88a5.5 5.5 0 1 1 0 11 5.5 5.5 0 0 1 0-11z"/></g><g><path fill="#0234c1" d="M65.5 88a5.5 5.5 0 1 1 0 11 5.5 5.5 0 0 1 0-11z"/><path fill="#c6a47f" d="M65.5 88a5.5 5.5 0 1 1 0 11 5.5 5.5 0 0 1 0-11z"/></g><g><path fill="#0234c1" d="M35.5 88a5.5 5.5 0 1 1 0 11 5.5 5.5 0 0 1 0-11z"/><path fill="#c6a47f" d="M35.5 88a5.5 5.5 0 1 1 0 11 5.5 5.5 0 0 1 0-11z"/></g><g><path fill="#0234c1" d="M5.5 88a5.5 5.5 0 1 1 0 11 5.5 5.5 0 0 1 0-11z"/><path fill="#c6a47f" d="M5.5 88a5.5 5.5 0 1 1 0 11 5.5 5.5 0 0 1 0-11z"/></g></g></g></svg>