<svg xmlns="http://www.w3.org/2000/svg" width="213" height="101" viewBox="0 0 213 101"><g><g><g><path fill="#0234c1" d="M207.5 90a5.5 5.5 0 1 1 0 11 5.5 5.5 0 0 1 0-11z"/></g><g><path fill="#0234c1" d="M207.5 60a5.5 5.5 0 1 1 0 11 5.5 5.5 0 0 1 0-11z"/></g><g><path fill="#0234c1" d="M207.5 30a5.5 5.5 0 1 1 0 11 5.5 5.5 0 0 1 0-11z"/></g><g><path fill="#0234c1" d="M207.5 0a5.5 5.5 0 1 1 0 11 5.5 5.5 0 0 1 0-11z"/></g><g><path fill="#0234c1" d="M178.5 90a5.5 5.5 0 1 1 0 11 5.5 5.5 0 0 1 0-11z"/></g><g><path fill="#0234c1" d="M178.5 60a5.5 5.5 0 1 1 0 11 5.5 5.5 0 0 1 0-11z"/></g><g><path fill="#0234c1" d="M178.5 30a5.5 5.5 0 1 1 0 11 5.5 5.5 0 0 1 0-11z"/></g><g><path fill="#0234c1" d="M178.5 0a5.5 5.5 0 1 1 0 11 5.5 5.5 0 0 1 0-11z"/></g><g><path fill="#0234c1" d="M148.5 90a5.5 5.5 0 1 1 0 11 5.5 5.5 0 0 1 0-11z"/></g><g><path fill="#0234c1" d="M148.5 60a5.5 5.5 0 1 1 0 11 5.5 5.5 0 0 1 0-11z"/></g><g><path fill="#0234c1" d="M148.5 30a5.5 5.5 0 1 1 0 11 5.5 5.5 0 0 1 0-11z"/></g><g><path fill="#0234c1" d="M148.5 0a5.5 5.5 0 1 1 0 11 5.5 5.5 0 0 1 0-11z"/></g><g><path fill="#0234c1" d="M119.5 90a5.5 5.5 0 1 1 0 11 5.5 5.5 0 0 1 0-11z"/></g><g><path fill="#0234c1" d="M119.5 60a5.5 5.5 0 1 1 0 11 5.5 5.5 0 0 1 0-11z"/></g><g><path fill="#0234c1" d="M119.5 30a5.5 5.5 0 1 1 0 11 5.5 5.5 0 0 1 0-11z"/></g><g><path fill="#0234c1" d="M119.5 0a5.5 5.5 0 1 1 0 11 5.5 5.5 0 0 1 0-11z"/></g></g><g><g><path fill="#0234c1" d="M93.5 90a5.5 5.5 0 1 1 0 11 5.5 5.5 0 0 1 0-11z"/></g><g><path fill="#0234c1" d="M93.5 60a5.5 5.5 0 1 1 0 11 5.5 5.5 0 0 1 0-11z"/></g><g><path fill="#0234c1" d="M93.5 30a5.5 5.5 0 1 1 0 11 5.5 5.5 0 0 1 0-11z"/></g><g><path fill="#0234c1" d="M93.5 0a5.5 5.5 0 1 1 0 11 5.5 5.5 0 0 1 0-11z"/></g><g><path fill="#0234c1" d="M64.5 90a5.5 5.5 0 1 1 0 11 5.5 5.5 0 0 1 0-11z"/></g><g><path fill="#0234c1" d="M64.5 60a5.5 5.5 0 1 1 0 11 5.5 5.5 0 0 1 0-11z"/></g><g><path fill="#0234c1" d="M64.5 30a5.5 5.5 0 1 1 0 11 5.5 5.5 0 0 1 0-11z"/></g><g><path fill="#0234c1" d="M64.5 0a5.5 5.5 0 1 1 0 11 5.5 5.5 0 0 1 0-11z"/></g><g><path fill="#0234c1" d="M34.5 90a5.5 5.5 0 1 1 0 11 5.5 5.5 0 0 1 0-11z"/></g><g><path fill="#0234c1" d="M34.5 60a5.5 5.5 0 1 1 0 11 5.5 5.5 0 0 1 0-11z"/></g><g><path fill="#0234c1" d="M34.5 30a5.5 5.5 0 1 1 0 11 5.5 5.5 0 0 1 0-11z"/></g><g><path fill="#0234c1" d="M34.5 0a5.5 5.5 0 1 1 0 11 5.5 5.5 0 0 1 0-11z"/></g><g><path fill="#0234c1" d="M5.5 90a5.5 5.5 0 1 1 0 11 5.5 5.5 0 0 1 0-11z"/></g><g><path fill="#0234c1" d="M5.5 60a5.5 5.5 0 1 1 0 11 5.5 5.5 0 0 1 0-11z"/></g><g><path fill="#0234c1" d="M5.5 30a5.5 5.5 0 1 1 0 11 5.5 5.5 0 0 1 0-11z"/></g><g><path fill="#0234c1" d="M5.5 0a5.5 5.5 0 1 1 0 11 5.5 5.5 0 0 1 0-11z"/></g></g></g></svg>