<svg width="38" height="38" fill="none" xmlns="http://www.w3.org/2000/svg"><path d="M37.674 18.154l-11.4-12.666a1.267 1.267 0 00-.942-.42h-7.6a1.268 1.268 0 00-.942 2.113L27.428 19 16.791 30.817a1.269 1.269 0 00.942 2.115h7.6c.36 0 .699-.154.942-.417l11.4-12.666a1.267 1.267 0 000-1.695z" fill="#00B9AB"/><path d="M21.21 18.154L9.81 5.488a1.268 1.268 0 00-.942-.42h-7.6a1.27 1.27 0 00-1.158.75c-.202.458-.119.992.216 1.362L10.963 19 .326 30.817a1.269 1.269 0 00.942 2.115h7.6c.36 0 .699-.154.942-.417l11.4-12.666a1.267 1.267 0 000-1.695z" fill="#00B9AB"/></svg>