<svg width="475" height="511" fill="none" xmlns="http://www.w3.org/2000/svg"><path d="M0 511c0-131.168 106.332-239 237.5-239S475 379.832 475 511H0z" fill="url(#paint0_linear)"/><path d="M348.031 141.169h33.31V115.79c7.137-5.551 9.517-12.689 8.724-29.344l-1.587-22.206c-17.447-.793-30.137-.793-48.378 0v19.034h-8.724c0 .793 3.173 19.034 3.173 19.827 1.586 5.551 5.551 9.517 10.31 12.689l3.172.793v24.586z" fill="#E9AC9A"/><path d="M350.41 83.274c0 3.965-3.173 7.93-7.138 7.93h-.793c-2.38 0-3.966-.793-5.552-2.379-.793-.793-1.586-3.172-1.586-4.758l-.793-46c0-3.965 3.172-6.344 6.345-6.344h.793c3.965-.793 6.344 2.38 6.344 5.552l2.38 45.999z" fill="#F2C799"/><path d="M363.89 73.757c0 1.586-.793 3.172-2.379 4.758-.793 1.587-2.379 2.38-3.966 2.38h-1.586c-3.172 0-5.551-3.173-6.344-7.138V56.309c0-1.586 0-3.172 1.586-4.758.793-.794 2.379-1.587 3.965-1.587h2.379c3.173 0 5.552 2.38 5.552 5.552l.793 18.24z" fill="#F8C7B9"/><path d="M376.581 74.55c0 3.965-2.379 7.138-6.345 7.138h-.793c-1.586 0-3.172-.794-4.758-1.587-.793-1.586-1.586-3.172-1.586-4.758V61.067c0-3.172 2.379-6.344 5.551-6.344h2.379c1.587 0 3.173.793 3.966 1.586.793.793 1.586 2.38 1.586 3.965V74.55z" fill="#F8C7B9"/><path d="M388.477 74.55c0 2.38-2.379 4.758-5.552 5.551h-.793c-3.172 0-5.551-2.379-5.551-5.551V64.24c0-3.173 1.586-5.552 4.758-5.552h2.379c2.38 0 4.759 2.38 4.759 4.759V74.55z" fill="#F8C7B9"/><path d="M370.235 81.688L332.96 94.377l-13.482-36.482-26.965-39.654L335.34 0l34.895 81.688z" fill="#EDEDED"/><path d="M365.479 129.273v-14.276c2.379-21.413-17.448-24.585-17.448-24.585v-2.38c0-1.586 0-2.379.793-3.172l4.759-5.552c1.586-2.379 2.379-4.758 2.379-7.137-.793-2.38-1.586-4.759-3.172-6.345l-1.586-.793c-1.587-1.586-4.759-1.586-6.345.793l-4.759 5.552-7.137 8.724c-.793.793-1.587 1.586-1.587 3.172 0 .793 3.173 19.034 3.173 19.827 1.586 5.552 5.551 9.517 10.31 12.689l3.172.793-.793 7.931h.793l17.448 4.759z" fill="#F8C7B9"/><path d="M344.858 330.716v.793h-.793c-11.897 15.068-11.104 37.275-10.311 56.309 2.38 41.24 4.759 81.687 7.138 122.135H170.379c-3.965-30.931-7.138-61.068-11.103-91.998-9.517 30.93-19.034 61.067-28.551 91.998H72.037c8.724-30.137 18.24-61.068 26.965-91.998 6.344-20.62 12.689-42.033 26.965-58.688 11.103-13.483 34.895-19.827 43.619-34.103 26.172-8.724 53.137-13.482 75.343-30.137 21.413-.793 38.861-5.552 52.344-18.241 12.689 13.483 25.378 29.344 38.861 43.62 3.172 3.172 5.551 6.344 8.724 10.31z" fill="#C8B2FB"/><path d="M254.447 330.716l-62.653 19.034-19.034-61.068 66.619-16.654 15.068 58.688z" fill="#E9AC9A"/><path d="M221.137 494.091c-7.138-10.31-9.517-19.827-15.068-29.344 12.689-15.069 17.447-26.965 23.792-45.999 5.552-18.241 7.138-39.654-2.379-58.688 3.965-1.586 7.138-1.586 11.103-3.966 16.655 23.793 24.586 49.172 22.999 78.516-.793 14.275-6.344 28.551-11.896 43.619-10.31 4.759-18.241 11.104-28.551 15.862z" fill="#B99FF4"/><path d="M392.443 227.615v9.517c-.793 6.345-.793 12.689-2.379 19.034-3.172 11.896-8.724 22.206-15.069 32.517-9.517 15.068-19.034 29.344-30.137 42.826h-.793c-3.172-3.172-6.345-6.345-9.517-10.31-13.482-13.482-26.965-29.344-37.275-44.413 17.448-17.448 30.137-29.344 36.482-53.136 3.172-13.483 4.759-24.586 6.345-38.861 1.586-15.069 1.586-30.138 4.758-43.62h38.861c1.586 5.552 2.38 11.896 2.38 16.655 3.172 23.792 6.344 45.999 6.344 69.791z" fill="#C8B2FB"/><path d="M344.858 141.169h38.861v-20.62h-38.861v20.62z" fill="#B99FF4"/><path d="M380.547 130.066c0 1.586-1.586 3.172-3.965 3.172-1.587 0-3.173-1.586-3.173-3.172 0-2.38 1.586-3.966 3.173-3.966 2.379 0 3.965 1.586 3.965 3.966z" fill="#fff"/><path d="M189.414 170.513c-28.551 4.759-49.172 27.758-41.241 61.861.793 3.965 1.586 7.137 3.173 11.103-7.138-2.379-11.897 4.758-7.931 14.275 2.379 7.138 7.138 15.862 11.103 16.655 5.552.793 6.345-2.379 6.345-2.379 3.965 9.517 6.344 18.241 10.31 22.999l12.689 12.69c7.931 7.137 14.276 7.93 26.965 6.344h.793c12.689-2.379 18.241-4.758 23.792-14.275 2.38-3.966 5.552-8.724 8.724-15.862 2.38-5.552 2.38-15.069 3.173-25.379 0 0 1.586 3.173 6.344.793 3.173-2.379 5.552-11.896 6.345-19.034.793-10.31-6.345-15.861-11.896-11.103v-11.896c-3.173-34.896-29.344-50.757-58.688-46.792z" fill="#F8C7B9"/><path d="M148.965 187.168c-8.724 15.068-10.31 30.137-1.586 56.309 4.758 1.586 7.931 4.758 11.103 17.447 3.965.794 4.759.794 7.931.794-28.551-68.206-.793-73.757 6.345-76.137 5.551-2.379 30.93-6.344 37.274-5.551 7.931 0 35.689-2.379 28.551 71.377 2.38-1.586 3.966-2.379 7.138-3.172 0-14.275 1.586-17.448 5.552-20.62.793-27.758-6.345-40.447-18.241-53.137-16.655-17.448-67.412-13.482-84.067 12.69z" fill="#492E83"/><path d="M206.861 168.134c3.965-.793 7.93-.793 11.103 1.586 3.172 3.172 2.379 8.724.793 12.689-7.931 17.448-20.62 34.896-41.241 38.861 1.587-2.379 5.552-6.344 5.552-10.31-11.103 7.138-23.792 10.31-36.482 8.724 2.379-11.103 4.759-22.206 11.103-30.93 6.345-7.138 14.276-11.896 23-15.069 7.931-3.172 17.448-4.758 26.172-5.551z" fill="#492E83"/><path d="M214.135 510.411h-45.206c-3.965-30.93-7.137-61.067-11.103-91.998-9.517 30.931-19.034 61.068-28.551 91.998H115c14.275-37.275 30.137-76.929 43.619-113.411.793 6.345 1.587 13.482 3.173 20.62 4.758 23.793 13.482 47.585 28.551 65.826-3.173 0-7.138.793-10.31.793 11.103 8.724 22.999 17.448 34.102 26.172zm126.756-.458h-53.93c14.275-6.345 27.758-13.483 40.447-23-17.448 3.173-34.102 6.345-51.55 10.31 18.241-3.965 34.102-18.241 42.033-35.688 7.931-17.448 9.517-38.068 6.345-57.102-3.173-22.207-11.896-43.62-25.379-61.861 12.689-5.552 24.586-12.689 35.689-21.413 3.172 3.965 6.345 7.138 9.517 10.31-8.724 11.103-10.31 26.172-10.31 41.24v15.069c2.379 41.24 4.758 81.687 7.138 122.135z" fill="#B99FF4"/><path d="M344.065 331.509c-3.172-3.172-6.345-6.345-9.517-10.31 0 0 .793-.793 1.586-.793 26.172-21.414 45.999-50.758 56.309-83.274-.793 6.345-.793 12.689-2.379 19.034-3.173 11.896-8.724 22.206-15.069 32.516-9.517 15.069-19.034 29.344-30.137 42.827h-.793z" fill="#B99FF4"/><path d="M240.963 354.508l-13.483 5.552-13.482-19.827 23.793-7.138 3.172 21.413z" fill="#575756"/><path d="M207.654 366.405l-43.62-34.896 15.862-19.034 46.792 23.793-19.034 30.137z" fill="#B99FF4"/><path d="M260.788 345.784l5.552-53.929-22.206-1.586-17.448 45.998 34.102 9.517z" fill="#B99FF4"/><path d="M240.962 354.509c-3.965 1.586-9.517 3.965-13.482 5.551 7.137 19.827 6.344 38.068-.793 57.102-7.931 18.241-13.483 28.551-26.965 42.827 3.965 9.517 5.551 19.827 11.103 31.723 10.31-3.965 18.241-9.517 29.344-13.482 6.345-14.276 12.689-28.551 15.069-42.827 4.758-28.551 0-54.723-14.276-80.894z" fill="#454544"/><defs><linearGradient id="paint0_linear" x1="237.5" y1="272" x2="237.5" y2="511" gradientUnits="userSpaceOnUse"><stop stop-color="#1C477E"/><stop offset="1" stop-color="#785CDB"/></linearGradient></defs></svg>