<svg width="284" height="284" fill="none" xmlns="http://www.w3.org/2000/svg"><g clip-path="url(#clip0)"><path d="M199.494 270.283a8.3 8.3 0 010-16.598c24.828 0 45.027-20.199 45.027-45.028v-76.583c0-56.198-45.72-101.92-101.919-101.92s-101.92 45.722-101.92 101.92v68.161a8.3 8.3 0 01-16.598 0v-68.161c0-31.657 12.328-61.42 34.713-83.805 22.385-22.385 52.148-34.714 83.805-34.714 31.657 0 61.42 12.328 83.805 34.714 22.385 22.385 34.713 52.148 34.713 83.805v76.583c0 33.981-27.645 61.626-61.626 61.626z" fill="#F2ECFF"/><path d="M226.406 48.269c-22.385-22.385-52.148-34.714-83.805-34.714-1.565 0-3.124.04-4.679.1 29.901 1.152 57.848 13.335 79.125 34.614 22.385 22.385 34.714 52.148 34.714 83.805v76.583c0 31.662-24.002 57.819-54.765 61.242a8.277 8.277 0 002.498.384c33.98 0 61.625-27.645 61.625-61.626v-76.583c.001-31.657-12.328-61.42-34.713-83.805z" fill="#DCCDFF"/><path d="M189.249 279.85h-20.19c-7.825 0-14.168-6.343-14.168-14.168v-7.397c0-7.825 6.343-14.168 14.168-14.168h20.19c7.825 0 14.168 6.343 14.168 14.168v7.397c0 7.825-6.343 14.168-14.168 14.168z" fill="#F2ECFF"/><path d="M191.164 244.245c.082.615.128 1.241.128 1.879v7.467c0 7.806-6.327 14.133-14.133 14.133h-20.261c-.637 0-1.263-.046-1.878-.128.919 6.917 6.836 12.254 14.004 12.254h20.261c7.806 0 14.133-6.327 14.133-14.133v-7.467c0-7.168-5.338-13.086-12.254-14.005z" fill="#C8B2FB"/><path d="M52.079 91.331l-19.595-8.835c-3.657-1.648-5.18-6.037-3.324-9.592 21.938-42 65.688-68.754 113.442-68.754 47.755 0 91.505 26.753 113.442 68.753 1.857 3.556.333 7.944-3.324 9.593l-19.595 8.834c-3.333 1.503-7.268.182-9.001-3.038C208.088 58.49 176.76 39.56 142.602 39.56c-34.159 0-65.486 18.928-81.523 48.732-1.732 3.22-5.666 4.542-9 3.039z" fill="#F2ECFF"/><path d="M256.044 72.904C237.085 36.607 201.835 11.7 161.789 5.605c28.12 11.186 51.883 32.17 66.268 59.708 1.857 3.556.333 7.944-3.324 9.593l-7.014 3.163a92.288 92.288 0 016.405 10.224c1.733 3.22 5.668 4.54 9.001 3.037l19.596-8.834c3.656-1.648 5.18-6.037 3.323-9.592z" fill="#DCCDFF"/><path d="M37.75 223.391H27.017c-8.8 0-15.934-7.133-15.934-15.933v-60.116c0-8.8 7.134-15.934 15.934-15.934h10.735c8.8 0 15.934 7.134 15.934 15.934v60.115c0 8.801-7.134 15.934-15.934 15.934zm219.237 0h-10.735c-8.8 0-15.934-7.133-15.934-15.933v-60.116c0-8.8 7.134-15.934 15.934-15.934h10.735c8.8 0 15.934 7.134 15.934 15.934v60.115c0 8.801-7.134 15.934-15.934 15.934z" fill="#F2ECFF"/><path d="M37.981 131.413c0 .063.005.126.005.19v60.196c0 8.778-7.116 15.894-15.894 15.894H11.277c-.064 0-.127-.004-.191-.005.103 8.689 7.175 15.703 15.89 15.703H37.79c8.778 0 15.894-7.116 15.894-15.894v-60.194c0-8.715-7.013-15.788-15.703-15.89zm219.238 0c0 .063.005.126.005.19v60.196c0 8.778-7.116 15.894-15.894 15.894h-10.815c-.064 0-.127-.004-.191-.005.103 8.689 7.175 15.703 15.89 15.703h10.815c8.777 0 15.894-7.116 15.894-15.894v-60.194c0-8.715-7.014-15.788-15.704-15.89z" fill="#C8B2FB"/><path d="M264.749 129.019c-.365-15.164-3.431-29.833-9.141-43.683a11.175 11.175 0 004.289-5.57 11.16 11.16 0 00-.653-8.784c-8.762-16.776-20.791-31.21-35.752-42.901a4.151 4.151 0 00-5.111 6.54c14.023 10.957 25.296 24.483 33.508 40.205a2.79 2.79 0 01.164 2.227 2.81 2.81 0 01-1.515 1.66l-19.595 8.835c-1.347.606-2.946.07-3.641-1.221-16.899-31.406-49.537-50.916-85.177-50.916-35.64 0-68.278 19.51-85.177 50.916a2.825 2.825 0 01-3.64 1.221l-19.596-8.836a2.807 2.807 0 01-1.515-1.659 2.794 2.794 0 01.164-2.228C53.795 33.79 95.853 8.3 142.125 8.3c21.621 0 42.985 5.728 61.782 16.564a4.15 4.15 0 004.145-7.19C187.997 6.11 165.199 0 142.125 0c-24.144 0-47.851 6.65-68.557 19.23-20.634 12.537-37.427 30.433-48.563 51.752a11.165 11.165 0 00-.651 8.784 11.179 11.179 0 004.29 5.571c-5.646 13.697-8.713 28.193-9.133 43.18-7.616 2.843-13.055 10.19-13.055 18.785v34.163a4.15 4.15 0 108.299 0v-34.163c0-6.476 5.268-11.744 11.744-11.744h10.815c6.476 0 11.744 5.269 11.744 11.744v60.195c0 6.476-5.268 11.744-11.744 11.744H26.499c-6.476 0-11.745-5.269-11.745-11.744v-7.808a4.149 4.149 0 00-4.15-4.149 4.149 4.149 0 00-4.149 4.149v7.808c0 11.052 8.992 20.044 20.044 20.044h10.815c11.052 0 20.044-8.991 20.044-20.044v-60.195c0-8.55-5.383-15.863-12.937-18.738A96.649 96.649 0 0151.4 95.651c4.944 1.419 10.363-.754 12.859-5.392 15.45-28.712 45.286-46.55 77.868-46.55 32.582 0 62.419 17.837 77.868 46.55 1.988 3.695 5.833 5.833 9.814 5.833a11.05 11.05 0 003.048-.432 96.634 96.634 0 016.956 32.493c-8.169 2.532-14.12 10.159-14.12 19.149v60.195c0 7.676 4.339 14.354 10.691 17.721-5.715 12.846-17.756 21.988-31.726 23.929a18.3 18.3 0 00-5.623-6.055 4.15 4.15 0 00-4.646 6.877 9.984 9.984 0 014.404 8.281v7.468c0 5.504-4.478 9.983-9.983 9.983h-20.261c-5.505 0-9.983-4.478-9.983-9.983v-7.468c0-5.505 4.478-9.984 9.983-9.984h8.471a4.15 4.15 0 000-8.299h-8.471c-10.081 0-18.282 8.202-18.282 18.283v7.468c0 10.08 8.201 18.282 18.282 18.282h20.261c7.04 0 13.16-4.003 16.213-9.85 13.441-1.217 25.984-6.452 36.373-15.222 10.112-8.538 17.294-19.64 20.878-32.224 8.272-2.469 14.321-10.143 14.321-19.207v-60.195c-.001-8.131-4.871-15.143-11.845-18.283zM43.779 92.356c-4.52 11.137-7.07 22.845-7.608 34.903h-8.308c.541-13.295 3.32-26.158 8.287-38.343l7.628 3.44zm204.299 34.903c-.537-12.059-3.087-23.766-7.607-34.903l7.63-3.44c4.966 12.184 7.744 25.049 8.285 38.343h-8.308zM207.091 265.56v-7.31c0-.362-.012-.722-.033-1.081 16.66-2.763 30.874-14.044 37.377-29.674.43.027.863.046 1.3.046h7.558c-7.05 20.1-25.097 34.992-46.202 38.019zm61.203-58.063c0 6.476-5.268 11.744-11.744 11.744h-10.815c-6.476 0-11.744-5.269-11.744-11.744v-60.195c0-6.476 5.269-11.744 11.744-11.744h10.815c6.476 0 11.744 5.269 11.744 11.744v60.195z" fill="#7747E1"/><path d="M150.448 193.985a4.16 4.16 0 01-3.865-5.698l17.191-43.222a4.159 4.159 0 015.403-2.328 4.159 4.159 0 012.328 5.402l-17.191 43.223a4.162 4.162 0 01-3.866 2.623zm40.066 0a4.16 4.16 0 01-3.807-5.835l16.436-37.388h-17.405a4.16 4.16 0 110-8.32h23.778a4.16 4.16 0 013.809 5.834l-19.001 43.222a4.16 4.16 0 01-3.81 2.487zm-61.715-.001h-.037a4.16 4.16 0 01-4.124-4.195c.023-2.612.045-5.528.068-8.561h-17.427a4.159 4.159 0 01-3.642-6.171c2.43-4.404 14.677-26.531 17.16-29.576 2.073-2.542 4.867-3.578 7.477-2.77 2.64.817 4.516 3.385 4.779 6.541.129 1.557.093 13.105.03 23.655h1.339a4.16 4.16 0 110 8.32h-1.394a6790.27 6790.27 0 01-.069 8.633 4.161 4.161 0 01-4.16 4.124zm-14.454-21.077h10.416c.041-7.107.068-13.963.057-18.335-2.495 4.182-6.452 11.13-10.473 18.335z" fill="#000"/><path d="M85.844 194.416c-8.306 0-8.916-.203-9.475-.39-1.387-.462-2.422-1.509-2.842-2.874-.724-2.352.287-3.676 2.99-7.214 2.197-2.877 6.289-8.235 13.144-18.03 2.036-2.909 3.35-5.515 3.906-7.749l.147-1.155a6.908 6.908 0 00-6.896-6.666c-3.29 0-6.137 2.338-6.77 5.558a4.164 4.164 0 01-4.884 3.281 4.161 4.161 0 01-3.28-4.884c1.397-7.113 7.677-12.275 14.934-12.275 8.392 0 15.219 6.827 15.219 15.219 0 .176-.011.353-.034.527l-.213 1.672a4.104 4.104 0 01-.074.413c-.769 3.318-2.532 6.962-5.24 10.829-5.107 7.297-8.707 12.173-11.144 15.408 4.093.013 9.369-.037 14.325-.1a4.159 4.159 0 11.105 8.319c-6.154.079-10.637.111-13.918.111z" fill="#000"/></g><defs><clipPath id="clip0"><path fill="#fff" d="M0 0h284v284H0z"/></clipPath></defs></svg>