<svg width="256" height="256" fill="none" xmlns="http://www.w3.org/2000/svg"><path d="M25.084 58.845h185.833c11.092 0 20.084 8.992 20.084 20.084v124.833c0 11.091-8.992 20.083-20.084 20.083H25.083C13.992 223.845 5 214.853 5 203.762V78.928c0-11.091 8.992-20.083 20.084-20.083z" fill="#8E6AE1"/><path d="M156.148 98.947l18.219-18.219L98.793 5.154 5 98.947h151.148z" fill="#F2ECFF"/><path d="M205.5 194.845v36c0 11.045-8.954 20-20 20H25c-11.046 0-20-8.955-20-20v-152c0 11.046 8.954 20 20 20h160.5c11.046 0 20 8.954 20 20v76z" fill="#C8B2FB"/><path d="M251 136.345v38.5c0 11.045-8.954 20-20 20h-91c-11.045 0-20-8.955-20-20 0-11.046 8.955-20 20-20h91.5c10.77 0 19.5-8.731 19.5-19.5" fill="#8E6AE1"/><path d="M186.465 98.947l18.218-18.219-75.574-75.574-93.793 93.793h151.149z" fill="#F2ECFF"/><path d="M110.889 23.373a25.684 25.684 0 0018.219 7.546 25.686 25.686 0 0018.219-7.546l-18.219-18.22-18.219 18.22zm75.575 75.574l18.219-18.22-18.219-18.219a25.687 25.687 0 00-7.546 18.22 25.682 25.682 0 007.546 18.219zm-56.802 0a36.146 36.146 0 00-7.555-11.05c-14.161-14.162-37.121-14.162-51.282 0a36.155 36.155 0 00-7.556 11.05h66.393z" fill="#DCCDFF"/><path d="M102.215 245.845c-1.32 0-2.605.534-3.535 1.465a5.038 5.038 0 00-1.465 3.535c0 1.315.535 2.605 1.465 3.534a5.04 5.04 0 003.535 1.466 5.035 5.035 0 003.535-1.466 5.034 5.034 0 001.465-3.534 5.038 5.038 0 00-1.465-3.535 5.034 5.034 0 00-3.535-1.465zM24 161.583v46.416a5 5 0 0010 0v-46.416a5 5 0 00-10 0zm8.535-24.368A5.038 5.038 0 0029 135.75a5.038 5.038 0 00-3.535 1.465A5.029 5.029 0 0024 140.75c0 1.315.535 2.605 1.465 3.535.93.93 2.22 1.465 3.535 1.465a5.038 5.038 0 003.535-1.465A5.04 5.04 0 0034 140.75a5.038 5.038 0 00-1.465-3.535z" fill="#7747E1"/><path d="M256 135.345c0-11.971-8.633-21.958-20-24.078V78.845c0-13.785-11.215-25-25-25h-26.128L132.645 1.618a5.001 5.001 0 00-7.071 0l-11.623 11.623-11.623-11.623a5 5 0 00-7.07 0L42.72 54.156a4.98 4.98 0 00-1.72-.31H25c-13.785 0-25 11.215-25 25 0 .364.012.726.028 1.087a5.007 5.007 0 00-.028.522v150.39c0 13.785 11.215 25 25 25h56.166a5 5 0 000-10H25c-8.271 0-15-6.729-15-15V98.832a24.867 24.867 0 0015 5.013l104.663.102h56.802c.163 0 .326-.009.488-.024l.029-.004c7.578.747 13.518 7.155 13.518 14.927v31H140c-13.785 0-25 11.215-25 25s11.215 25 25 25h60.5v31c0 8.271-6.729 15-15 15h-62.334a5 5 0 000 10H185.5c13.785 0 25-11.215 25-25v-2h.5c13.785 0 25-11.215 25-25v-4.503c11.398-2.323 20-12.424 20-24.497v-38.5c0-.105-.003-.209-.01-.312.007-.229.01-.459.01-.689zM111.183 30.152a30.712 30.712 0 0017.926 5.753 30.711 30.711 0 0017.927-5.753l32.65 32.65c-6.563 9.14-7.508 21.094-2.829 31.043h-44.138a41.062 41.062 0 00-7.075-9.484c-7.794-7.793-18.156-12.085-29.178-12.085-11.021 0-21.383 4.292-29.176 12.085a41.037 41.037 0 00-7.077 9.484H47.49l63.694-63.693zm9.561 63.693H72.189a31.286 31.286 0 012.173-2.412c5.904-5.905 13.755-9.157 22.105-9.157s16.201 3.252 22.106 9.157c.769.77 1.491 1.575 2.171 2.412zm66.154-23.832l10.715 10.715-10.715 10.715c-3.955-6.567-3.955-14.863 0-21.43zm-57.789-57.788l10.715 10.715c-6.391 3.85-14.421 3.95-20.9.305a4.99 4.99 0 00.481-1.315l9.704-9.705zM25 63.845h8.03L11.5 85.377a14.91 14.91 0 01-1.5-6.532c0-8.27 6.729-15 15-15zm-6.393 28.566l80.186-80.186 8.087 8.087-73.534 73.533H25c-2.285 0-4.453-.516-6.393-1.434zm177.612 3.854l12-12a5.002 5.002 0 000-7.072l-13.347-13.347H211c8.271 0 15 6.729 15 15v71h-15.5v-31c0-9.952-5.845-18.561-14.281-22.581zM211 218.845h-.5v-19H226v4c0 8.271-6.729 15-15 15zm35-44c0 8.271-6.729 15-15 15h-91c-8.271 0-15-6.729-15-15s6.729-15 15-15h91.5c5.421 0 10.438-1.77 14.5-4.762v19.762zm-10-25.718v-27.563c5.798 1.898 10 7.357 10 13.781 0 6.425-4.202 11.884-10 13.782z" fill="#7747E1"/><path d="M141 169.845a5.034 5.034 0 00-3.535 1.465 5.038 5.038 0 00-1.465 3.535c0 1.315.535 2.605 1.465 3.534.93.93 2.22 1.466 3.535 1.466a5.035 5.035 0 003.535-1.466 5.034 5.034 0 001.465-3.534 5.038 5.038 0 00-1.465-3.535 5.038 5.038 0 00-3.535-1.465zm-6.437-89.57a4.985 4.985 0 003.535-1.465l8.69-8.69a5 5 0 10-7.071-7.071l-8.69 8.69a5 5 0 003.536 8.536z" fill="#7747E1"/></svg>