<svg width="275" height="275" fill="none" xmlns="http://www.w3.org/2000/svg"><path d="M262.109 85.938V137.5a17.185 17.185 0 01-17.187 17.188H90.234A17.185 17.185 0 0173.047 137.5V85.937h189.062zM73.047 60.156v8.594h189.062v-8.594a17.184 17.184 0 00-17.187-17.187H90.234a17.187 17.187 0 00-17.187 17.187z" fill="#C8B2FB"/><path d="M73.047 68.75h189.062v17.188H73.047V68.75z" fill="#8E6AE1"/><path d="M232.031 137.5c7.12 0 12.891-5.771 12.891-12.891 0-7.119-5.771-12.89-12.891-12.89-7.119 0-12.89 5.771-12.89 12.89 0 7.12 5.771 12.891 12.89 12.891z" fill="#F7941D"/><path d="M12.89 180.469v81.64h42.97v-81.64H12.89z" fill="#8E6AE1"/><path d="M42.969 180.469h12.89v81.64H42.97v-81.64z" fill="#C8B2FB"/><path d="M190.867 204.188l53.711-31.024a12.898 12.898 0 0112.891 22.344l-97.144 60.422a34.368 34.368 0 01-21.575 5.015l-72.578-7.257a33.445 33.445 0 00-3.438-.172H55.86v-60.157h5.285c2.186 0 4.352-.417 6.381-1.229l24.922-9.968a51.539 51.539 0 0130.689-2.381l58.257 13.376a12.897 12.897 0 019.446 10.768 12.893 12.893 0 01-2.554 9.531 12.88 12.88 0 01-8.546 4.932 12.892 12.892 0 01-5.019-.33l-41.517-8.078" fill="#F2ECFF"/><path d="M210.547 137.5c7.119 0 12.891-5.771 12.891-12.891 0-7.119-5.772-12.89-12.891-12.89s-12.891 5.771-12.891 12.89c0 7.12 5.772 12.891 12.891 12.891z" fill="#F15A29"/><path d="M90.234 158.984h154.688a21.507 21.507 0 0021.484-21.484V60.156a21.51 21.51 0 00-21.484-21.484H90.234A21.51 21.51 0 0068.75 60.156V137.5a21.508 21.508 0 0021.484 21.484zm154.688-8.593H90.234a12.889 12.889 0 01-12.89-12.891V90.234h180.468V137.5a12.89 12.89 0 01-12.89 12.891zM77.344 73.047h180.468v8.594H77.344v-8.594zm12.89-25.781h154.688a12.891 12.891 0 0112.89 12.89v4.297H77.344v-4.297a12.89 12.89 0 0112.89-12.89z" fill="#7747E1"/><path d="M232.031 107.422a17.134 17.134 0 00-10.785 3.841 17.19 17.19 0 00-28.017 13.346 17.187 17.187 0 0019.22 17.067 17.19 17.19 0 008.797-3.72 17.193 17.193 0 0022.584-.806 17.185 17.185 0 005.269-14.917 17.189 17.189 0 00-17.068-14.811zm-21.484 25.781a8.599 8.599 0 01-7.94-5.305 8.596 8.596 0 0111.229-11.228 8.59 8.59 0 015.305 7.939 8.596 8.596 0 01-8.594 8.594zm21.484 0a8.457 8.457 0 01-5.586-2.088 16.952 16.952 0 000-13.011 8.457 8.457 0 015.586-2.088 8.592 8.592 0 016.077 14.67 8.592 8.592 0 01-6.077 2.517zm-77.343 0h-55.86a4.296 4.296 0 000 8.594h55.86a4.297 4.297 0 000-8.594z" fill="#7747E1"/><path d="M98.828 128.906h4.297a4.293 4.293 0 004.297-4.297 4.297 4.297 0 00-4.297-4.297h-4.297a4.296 4.296 0 000 8.594zm17.188 0h4.296a4.297 4.297 0 100-8.594h-4.296a4.298 4.298 0 000 8.594zm17.187 0h4.297a4.293 4.293 0 004.297-4.297 4.297 4.297 0 00-4.297-4.297h-4.297a4.297 4.297 0 000 8.594zm21.485-8.594h-4.297a4.298 4.298 0 000 8.594h4.297a4.296 4.296 0 100-8.594z" fill="#8E6AE1"/><path d="M265.912 175.742a17.254 17.254 0 00-23.482-6.29l-49.071 28.342a17.37 17.37 0 00-4.559-5.579 17.378 17.378 0 00-6.432-3.247l-58.27-13.376a55.652 55.652 0 00-33.24 2.578l-24.922 9.973a12.829 12.829 0 01-4.796.92h-.984v-8.594a4.298 4.298 0 00-4.297-4.297H12.891a4.3 4.3 0 00-4.297 4.297v81.64a4.298 4.298 0 004.297 4.297h42.968a4.295 4.295 0 004.297-4.297v-4.296h2.578c1 0 2.003.05 3.008.15l72.587 7.257a38.27 38.27 0 003.799.189 38.945 38.945 0 0020.479-5.83l97.027-60.359a17.217 17.217 0 006.278-23.478zm-214.35 82.071H17.188v-73.047h34.374v73.047zM255.2 191.86l-97.139 60.423a30.348 30.348 0 01-18.881 4.387l-72.578-7.262a39.731 39.731 0 00-3.868-.189h-2.578v-51.563h.984a21.465 21.465 0 007.98-1.534l24.921-9.973a47.073 47.073 0 0128.132-2.183l58.107 13.321a8.63 8.63 0 014.221 2.621 8.637 8.637 0 012.074 4.516c.009.144.026.287.051.43a8.593 8.593 0 01-.266 2.939 8.706 8.706 0 01-4.153 5.269 8.685 8.685 0 01-6.667.746l-41.525-8.078a4.296 4.296 0 00-4.343 6.607 4.297 4.297 0 002.702 1.828l41.25 8.009a17.188 17.188 0 0021.613-15.589l51.49-29.743a8.601 8.601 0 018.577-.01 8.591 8.591 0 014.313 7.414 8.773 8.773 0 01-4.417 7.614z" fill="#7747E1"/><path d="M34.375 193.359a4.296 4.296 0 00-4.297 4.297v4.297a4.294 4.294 0 004.297 4.297 4.296 4.296 0 004.297-4.297v-4.297a4.297 4.297 0 00-4.297-4.297z" fill="#7747E1"/></svg>