<svg width="442" height="470" fill="none" xmlns="http://www.w3.org/2000/svg"><path d="M342.879 292.635c6.405 3.774 16.52 3.774 22.926 0 6.405-3.774 6.405-9.949 0-13.38-6.406-3.773-16.521-3.773-22.926 0-6.069 3.431-6.069 9.606 0 13.38zm-13.486-21.27c13.823-8.234 36.074-8.234 49.897 0 13.823 7.89 13.823 20.927 0 29.16-13.823 8.234-36.074 8.234-49.897 0-13.486-8.233-13.486-21.27 0-29.16z" fill="#DFEEFB"/><path d="M384.685 266.562h-12.812c-.674-1.029-2.022-2.401-3.708-3.43-7.08-4.117-17.869-4.117-25.623-.687l-7.418-7.204h-11.463c.675-.343 1.349-.686 1.686-1.029 16.183-9.263 42.143-9.263 57.989 0 3.035 1.715 5.395 3.774 7.081 5.832l-5.732 6.518z" fill="#7545DF"/><path d="M323.662 236.715v18.526h11.463v-18.526h-11.463z" fill="#7545DF"/><path d="M342.542 243.577v18.868l-7.418-7.204v-18.526l7.418 6.862z" fill="#7545DF"/><path d="M371.873 248.037v18.525l-16.52-13.722-12.812 9.605v-18.868l11.801-5.832s16.183 5.146 17.194 5.489c.674 0 .337 4.803.337 4.803z" fill="#7545DF"/><path d="M384.685 247.694v18.868h-12.812v-18.525l12.812-.343z" fill="#7545DF"/><path d="M390.417 241.175v18.869l-5.732 6.518v-18.869l5.732-6.518z" fill="#7545DF"/><path d="M384.685 247.694l-12.812.343c-.674-1.373-2.022-2.402-3.708-3.431-7.08-4.117-17.869-4.46-25.623-1.029l-7.418-6.861h-11.463c.675-.344 1.349-.687 1.686-1.03 16.183-9.606 42.143-9.606 57.989 0 3.035 1.716 5.395 3.431 7.081 5.489l-5.732 6.519z" fill="#8D60F1"/><path d="M338.833 245.978v17.153l-10.789-2.744s.674-9.949 1.011-10.292c0-.343 9.778-4.117 9.778-4.117zm8.429 17.153v18.526l-1.349 1.372-7.754-4.46s1.348-14.408 1.348-14.752c.337 0 7.755-.686 7.755-.686z" fill="#5523C3"/><path d="M332.427 258.328l6.406 6.176c-5.394 4.459-4.72 10.635 2.023 14.751 2.023 1.03 4.046 1.716 6.406 2.402l-7.08 7.204 6.068 5.832c-7.417-.686-14.834-3.087-20.903-6.518-13.486-7.89-15.509-20.584-5.731-29.847h12.811z" fill="#7545DF"/><path d="M346.25 276.168v18.525l-14.834-5.832-17.869-17.496V251.81l18.88 15.438 13.823 8.92z" fill="#7545DF"/><path d="M332.427 239.803l6.406 6.175c-5.394 4.46-4.72 10.635 2.023 14.752 2.023 1.029 4.046 1.715 6.406 2.401l-7.08 7.205 6.068 5.832c-7.417-1.029-14.834-3.088-20.903-6.518-13.486-8.234-15.509-20.584-5.731-29.847h12.811z" fill="#8D60F1"/><path d="M346.25 288.861l6.069-6.518c5.731.343 11.463-.686 15.846-3.087 4.383-2.745 6.068-6.176 5.394-9.606l14.16-.343 5.395-5.832c5.057 8.576 1.685 18.182-9.778 24.7-8.428 4.803-19.217 7.205-30.343 7.205l-6.743-6.519z" fill="#7545DF"/><path d="M352.993 276.511v18.868l42.481-24.014v-18.526l-6.406 2.402-36.075 21.27z" fill="#7545DF"/><path d="M346.25 270.336v18.525l6.743 6.519v-18.869l-6.743-6.175z" fill="#5523C3"/><path d="M346.25 270.336l6.069-6.518c5.731.343 11.463-.687 15.846-3.088 4.383-2.745 6.068-6.175 5.394-9.606l14.16-.343 5.395-5.832c5.057 8.234 1.685 17.839-9.778 24.701-8.428 4.803-19.217 7.204-30.343 6.861l-6.743-6.175z" fill="#8D60F1"/><path d="M181.048 413.737L245.443 376c4.046-2.401 3.372-6.175-1.011-8.92l-62.373-36.708c-4.382-2.744-11.463-2.744-15.508-.686l-64.395 38.081c-3.71 2.058-3.372 6.175 1.348 8.919l62.035 36.708c4.72 2.402 11.463 2.745 15.509.343z" fill="#DFEEFB"/><path d="M80.915 338.949v-28.474h62.372l21.578-12.694c5.057-2.744 13.486-2.401 19.217.686l20.229 12.008h62.372v29.16c.337 1.715-1.011 3.774-3.371 5.146l-80.578 47.343c-5.058 3.088-13.486 2.745-19.218-.686l-77.88-45.971c-3.372-1.715-5.058-4.46-4.72-6.518z" fill="#7545DF"/><path d="M173.968 295.723c3.371.343 7.08 1.029 10.114 2.744l20.229 12.007h62.372v29.161c.337 1.715-1.011 3.774-3.371 5.146l-80.578 47.343c-2.36 1.372-5.732 2.059-8.766 2.059v-98.46z" fill="#7545DF"/><path d="M259.603 310.474h7.08v29.161c.338 1.715-1.011 3.774-3.371 5.146l-3.709 2.058v-36.365z" fill="#6097D0"/><path d="M181.385 392.81c-4.045 1.715-10.451 1.715-15.171-.343v-32.934h15.171v33.277z" fill="#8D60F1"/><path d="M182.733 363.307l80.579-47.687c5.057-2.744 4.382-7.89-1.349-11.321l-77.881-45.627c-5.732-3.431-14.16-3.774-19.217-.687l-80.579 47.343c-5.057 2.745-4.383 7.891 1.349 11.322l77.881 45.627c5.731 3.431 14.16 3.774 19.217 1.03z" fill="#DFEEFB"/><path d="M181.385 354.73l67.429-39.796c4.383-2.401 3.709-6.861-1.011-9.605l-65.407-38.081c-4.72-3.087-11.8-3.43-16.183-.686l-67.43 39.453c-4.045 2.401-3.708 6.861 1.012 9.606l65.407 38.423c4.72 2.744 12.137 3.087 16.183.686z" fill="#8D60F1"/><path d="M110.584 346.153c0 2.402 1.349 4.803 3.371 5.832 1.686 1.03 3.035.343 3.035-1.715 0-2.401-1.349-4.803-3.035-5.832-2.022-1.029-3.371-.343-3.371 1.715zm-10.451-5.832c0 2.059 1.348 4.46 3.034 5.489 2.023 1.03 3.372.343 3.372-1.715 0-2.058-1.349-4.803-3.372-5.832-1.686-1.029-3.034-.343-3.034 2.058zm-10.452-6.175c0 2.058 1.349 4.46 3.035 5.489 2.022 1.029 3.37.343 3.37-1.715 0-2.059-1.348-4.803-3.37-5.832-1.686-1.03-3.035-.343-3.035 2.058z" fill="#DFEEFB"/><path d="M80.915 293.664V265.19h62.372l21.578-12.694c5.057-2.744 13.486-2.401 19.217 1.029l20.229 11.665h62.372v29.16c.337 2.059-1.011 3.774-3.371 5.146l-80.578 47.343c-5.058 3.088-13.486 2.745-19.218-.686l-77.88-45.628c-3.372-2.058-5.058-4.459-4.72-6.861z" fill="#7545DF"/><path d="M173.968 250.781c3.371 0 7.08.686 10.114 2.745l20.229 11.664h62.372v29.16c.337 2.059-1.011 3.774-3.371 5.146l-80.578 47.343c-2.36 1.373-5.732 2.059-8.766 2.059v-98.117z" fill="#7545DF"/><path d="M259.603 265.19h7.08v29.16c.338 2.059-1.011 3.774-3.371 5.146l-3.709 2.402V265.19z" fill="#6097D0"/><path d="M181.385 347.526c-4.045 1.715-10.451 1.715-15.171 0v-33.278h15.171v33.278z" fill="#8D60F1"/><path d="M182.733 318.022l80.579-47.343c5.057-3.088 4.382-8.234-1.349-11.321l-77.881-45.971c-5.732-3.431-14.16-3.774-19.217-.686l-80.579 47.343c-5.057 2.744-4.383 7.89 1.349 11.321l77.881 45.628c5.731 3.43 14.16 3.773 19.217 1.029z" fill="#DFEEFB"/><path d="M181.385 309.445l67.429-39.795c4.383-2.402 3.709-6.519-1.011-9.606l-65.407-38.081c-4.72-3.087-11.8-3.087-16.183-.686l-67.43 39.453c-4.045 2.401-3.708 6.861 1.012 9.606l65.407 38.423c4.72 2.745 12.137 3.088 16.183.686z" fill="#8D60F1"/><path d="M110.584 301.211c0 2.059 1.349 4.46 3.371 5.49 1.686 1.029 3.035.343 3.035-1.716 0-2.058-1.349-4.803-3.035-5.832-2.022-1.029-3.371-.343-3.371 2.058zm-10.451-6.175c0 2.059 1.348 4.46 3.034 5.49 2.023 1.029 3.372.343 3.372-1.716 0-2.058-1.349-4.803-3.372-5.832-1.686-1.029-3.034-.343-3.034 2.058zm-10.452-6.174c0 2.058 1.349 4.459 3.035 5.489 2.022 1.029 3.37.343 3.37-1.716 0-2.058-1.348-4.803-3.37-5.832-1.686-1.029-3.035 0-3.035 2.059z" fill="#DFEEFB"/><path d="M80.915 248.38v-28.475h62.372l21.578-12.693c5.057-2.745 13.486-2.402 19.217 1.029l20.229 11.664h62.372v29.161c.337 2.058-1.011 3.774-3.371 5.146l-80.578 47.343c-5.058 3.087-13.486 2.744-19.218-.686l-77.88-45.628c-3.372-2.058-5.058-4.46-4.72-6.861z" fill="#7545DF"/><path d="M173.968 205.496c3.371 0 7.08 1.03 10.114 2.745l20.229 11.664h62.372v29.161c.337 2.058-1.011 3.773-3.371 5.146l-80.578 47.343c-2.36 1.372-5.732 2.058-8.766 2.058v-98.117z" fill="#7545DF"/><path d="M259.603 219.905h7.08v29.161c.338 2.058-1.011 3.773-3.371 5.146l-3.709 2.401v-36.708z" fill="#6097D0"/><path d="M181.385 302.241c-4.045 2.058-10.451 1.715-15.171 0v-33.277h15.171v33.277z" fill="#8D60F1"/><path d="M182.733 272.737l80.579-47.343c5.057-3.087 4.382-8.233-1.349-11.321l-77.881-45.971c-5.732-3.43-14.16-3.774-19.217-.686l-80.579 47.343c-5.057 2.745-4.383 7.891 1.349 11.321l77.881 45.628c5.731 3.431 14.16 3.774 19.217 1.029z" fill="#DFEEFB"/><path d="M85.635 220.591l77.881 45.628c5.731 3.431 14.16 3.774 19.217 1.029l80.578-47.686c1.349-.343 2.023-1.372 2.697-2.058 1.686 2.744.675 5.832-2.697 7.89l-80.578 47.343c-5.057 2.745-13.486 2.402-19.217-1.029L85.635 226.08c-4.383-2.744-5.732-6.175-4.046-9.262 1.011 1.372 2.36 2.744 4.046 3.773z" fill="#FEFEFE"/><path d="M110.584 255.927c0 2.058 1.349 4.46 3.371 5.489 1.686 1.029 3.035.343 3.035-1.715 0-2.059-1.349-4.803-3.035-5.832-2.022-1.03-3.371 0-3.371 2.058zm-10.451-6.175c0 2.058 1.348 4.46 3.034 5.489 2.023 1.372 3.372.343 3.372-1.715 0-2.059-1.349-4.803-3.372-5.832-1.686-1.03-3.034 0-3.034 2.058zm-10.452-6.175c0 2.058 1.349 4.459 3.035 5.489 2.022 1.372 3.37.343 3.37-1.716 0-2.058-1.348-4.803-3.37-5.832-1.686-1.029-3.035 0-3.035 2.059zm95.413 38.766c0 1.372 1.011 2.058 2.36 1.372 1.349-1.029 2.36-2.744 2.36-4.117 0-1.372-1.011-2.058-2.36-1.372-1.349.686-2.36 2.402-2.36 4.117z" fill="#DFEEFB"/><path d="M192.174 278.226c0 1.373 1.012 2.059 2.36 1.373 1.349-1.03 2.36-2.745 2.36-4.117 0-1.372-1.011-2.059-2.36-1.372-1.348.686-2.36 2.401-2.36 4.116z" fill="#fff"/><path d="M185.094 290.92c0 1.372 1.011 2.058 2.36 1.372 1.349-.686 2.36-2.402 2.36-4.117 0-1.372-1.011-2.058-2.36-1.372-1.349.686-2.36 2.744-2.36 4.117zm7.08-4.117c0 1.372 1.012 2.058 2.36 1.372 1.349-.686 2.36-2.401 2.36-4.117 0-1.372-1.011-2.058-2.36-1.372-1.348.686-2.36 2.745-2.36 4.117z" fill="#DFEEFB"/><path d="M185.094 327.285c0 1.372 1.011 2.058 2.36 1.029 1.349-.686 2.36-2.402 2.36-3.774 0-1.715-1.011-2.058-2.36-1.372-1.349.686-2.36 2.401-2.36 4.117z" fill="#FEFEFE"/><path d="M192.174 323.168c0 1.372 1.012 2.058 2.36 1.029 1.349-.686 2.36-2.401 2.36-3.773 0-1.716-1.011-2.059-2.36-1.373-1.348.686-2.36 2.402-2.36 4.117z" fill="#fff"/><path d="M185.094 335.861c0 1.373 1.011 2.059 2.36 1.373 1.349-.687 2.36-2.745 2.36-4.117 0-1.372-1.011-2.059-2.36-1.372-1.349.686-2.36 2.401-2.36 4.116zm7.08-4.116c0 1.372 1.012 2.058 2.36 1.372 1.349-.686 2.36-2.745 2.36-4.117 0-1.372-1.011-2.058-2.36-1.372-1.348.686-2.36 2.401-2.36 4.117z" fill="#DFEEFB"/><path d="M185.094 372.569c0 1.373 1.011 2.059 2.36 1.373 1.349-1.03 2.36-2.745 2.36-4.117 0-1.372-1.011-2.059-2.36-1.372-1.349.686-2.36 2.401-2.36 4.116z" fill="#FEFEFE"/><path d="M192.174 368.453c0 1.372 1.012 2.058 2.36 1.372 1.349-1.029 2.36-2.745 2.36-4.117 0-1.372-1.011-2.058-2.36-1.372-1.348.686-2.36 2.401-2.36 4.117z" fill="#fff"/><path d="M185.094 381.146c0 1.372 1.011 2.058 2.36 1.372 1.349-.686 2.36-2.744 2.36-4.117 0-1.372-1.011-2.058-2.36-1.372-1.349.686-2.36 2.745-2.36 4.117z" fill="#FEFEFE"/><path d="M192.174 377.029c0 1.373 1.012 2.059 2.36 1.373 1.349-.687 2.36-2.745 2.36-4.117 0-1.373-1.011-2.059-2.36-1.373-1.348.687-2.36 2.745-2.36 4.117z" fill="#DFEEFB"/><path d="M132.162 241.861l78.892-46.657c1.012-.343 1.012-1.372-.337-2.058a3.018 3.018 0 00-3.371 0l-79.23 46.314c-1.011.686-.674 1.372.337 2.058 1.012.686 2.698.686 3.709.343z" fill="#2F3E74"/><path d="M441.662 352.672l-49.56-29.161c-9.778-5.832-19.218-6.861-25.961-2.745-7.08 4.117-10.789 12.694-10.789 24.358v3.774c.338 0 .675.343 1.012.686v-4.46c0-10.978 3.709-19.212 10.114-23.328 6.743-3.774 15.509-2.745 24.949 2.744l49.561 29.161c.337.343.674 0 .674 0 .337-.343 0-.686 0-1.029zm-154.412-34.65V204.467c0-22.642-15.509-50.43-35.064-61.752-9.44-5.489-18.206-6.518-24.949-2.401-6.743 3.774-10.451 12.35-10.451 23.328v7.891l1.011 1.029v-8.92c0-10.635 3.372-18.525 9.778-22.299 6.405-3.774 15.171-3.087 24.274 2.402 18.88 10.978 34.389 38.423 34.389 60.722v113.555c0 18.526 10.789 40.825 25.623 54.204v-1.372c-14.16-13.379-24.611-34.65-24.611-52.832z" fill="#DFEEFB"/><path d="M216.785 174.963c-2.022-1.715-10.114-9.262-22.588-10.978-13.486-2.401-19.218 14.066-19.218 14.066s-1.686 8.577-1.686 13.723c0 5.146.338 23.328.338 23.328l43.829-25.73c.337 0 .337 0 .337-.343v-13.036l-1.012-1.03z" fill="#8D60F1"/><path d="M185.768 164.672l41.469-24.358-.337.686c6.406-4.46 16.183-4.803 28.995 4.803 25.623 19.212 28.657 45.971 30.006 50.774 1.349 5.146 1.011 36.708 1.011 36.708v85.08c0 8.92 2.698 18.869 7.418 29.847 5.057 10.635 17.531 23.671 17.531 23.671v15.438c-2.023 16.81-9.103 20.927-19.217 21.613-8.429 1.03-17.532-5.146-24.612-12.007 0 .343.337.343.337.343v15.781c-2.023 16.81-9.103 20.584-19.554 21.613-10.452 1.029-21.578-8.919-29.332-17.153-7.754-8.234-14.16-20.584-17.532-31.905-3.708-11.664-2.36-26.073-2.36-26.073s-.337-83.365-.337-99.832-.674-13.723-5.731-30.19c-5.395-16.467-19.555-28.131-19.555-28.131l-33.715-10.292 45.515-26.416z" fill="#DFEEFB"/><path d="M257.917 433.292c.675-1.029 7.755-5.832 9.777-14.752 1.012-5.146 1.012-12.35 1.012-12.35s0-4.46-.337-8.234v-3.773c-.337-3.774 2.697-12.351 2.697-12.351s4.046-11.321 16.183-11.664c10.789-.343 21.915 7.547 24.275 9.263v-5.146c.337 0 .337.343.674.343v-2.059l-.337-.343v-1.372l.337.343c-.337-1.029-.337-1.715-.337-2.401 0-4.117 2.697-12.351 2.697-12.351s4.046-11.321 16.183-11.664c10.789-.686 21.915 7.205 24.612 9.263v-5.146c.337 0 .674.343 1.011.686v8.92c0 10.635-3.708 18.868-10.114 22.985h-.337v.343l-44.504 25.73-43.492 25.73z" fill="#8D60F1"/><path d="M322.312 346.496s.337-.343 1.011-.343c.337-.343.337-.343.674-.343l42.144-25.044s7.754-4.116 16.857-.343c9.44 3.431 58.664 33.278 58.664 33.278l-43.829 25.73h-.337l-43.492 25.386s-24.275-15.438-41.47-25.386l-1.011-.687c-7.08-4.116-12.474-7.204-14.16-7.547-10.452-2.745-17.869.686-19.892 1.715l44.841-26.416z" fill="#DFEEFB"/><path d="M277.472 372.912l-.338.344s0-.344.338-.344z" fill="#DFEEFB"/><path d="M172.956 200.693c-1.686-2.058-10.114-9.262-22.252-11.321-13.823-2.058-19.554 14.409-19.554 14.409s-1.349 8.577-1.349 13.379c0 5.146.337 23.329.337 23.329l43.83-25.387c0-.343.337-.343.337-.686v-13.037c-.337-.343-.675-.343-1.349-.686z" fill="#8D60F1"/><path d="M249.489 435.35c-5.057 0-10.452-1.715-15.846-5.146-19.218-10.978-34.726-38.766-34.726-61.065V255.584c0-22.299-15.509-49.402-34.389-60.723-9.103-5.489-17.869-6.175-24.275-2.401-6.406 3.774-9.777 11.664-9.777 22.299v25.387c0 .343-.337.686-.675.686-.337 0-.337-.343-.337-.686v-25.387c0-10.978 3.709-19.212 10.452-23.328 6.743-4.117 15.509-3.088 24.949 2.401 19.217 11.321 35.063 39.11 35.063 61.752v113.555c0 21.956 15.509 49.058 34.389 60.379 8.766 5.146 17.532 6.175 23.6 2.402 6.406-3.774 10.115-11.665 10.115-22.3v-13.379c0-11.321 3.708-20.241 10.789-24.015 6.743-4.117 16.183-3.43 25.96 2.402l49.223 29.16c.338.343.675.686.338 1.029 0 0-.338.344-.675 0l-49.56-29.16c-9.441-5.489-18.206-6.518-24.949-2.745-6.406 4.117-10.115 12.351-10.115 23.329v13.379c0 10.978-3.708 19.212-10.451 23.329-2.697 1.372-5.732 2.401-9.103 2.401z" fill="#3F6AA9"/><path d="M240.723 175.306l5.057-3.087c.337 0 .337-.343 0-.686l-4.046-4.803c-.337-.343-1.011-.343-1.348-.343l-5.058 3.087c-.337.343-.337.686 0 1.03l4.046 4.459c.337.343 1.012.687 1.349.343z" fill="#6097D0"/><path d="M229.26 182.168l5.394-3.088c.338-.343.338-.686 0-1.029l-4.383-4.803c-.337-.343-.674-.343-1.011 0l-5.394 3.088c-.337 0-.337.343 0 .686l4.383 4.803c.337.343.674.343 1.011.343z" fill="#3F6AA9"/><path d="M218.134 188.686l5.394-3.088c.338-.343.338-.686 0-1.029l-4.383-4.46c-.337-.343-1.011-.686-1.011-.343l-5.394 3.088c-.337 0-.337.686 0 1.029l4.383 4.46c.337.343.674.343 1.011.343z" fill="#FEFEFE"/><path d="M243.421 281.314l7.08-4.117c.674-.343 1.348-1.372 1.348-2.401 0-1.03-.674-1.373-1.348-1.03l-7.08 4.46c-.675.343-1.349 1.373-1.349 2.402 0 .686.674 1.372 1.349.686zm-17.532 10.292l10.788-6.175c.675-.343 1.349-1.716 1.349-2.402 0-1.029-.674-1.372-1.349-1.029l-10.788 6.175c-.675.686-1.349 1.716-1.349 2.402 0 1.029.674 1.372 1.349 1.029zm20.902 29.503l7.418-4.459c.674-.343 1.348-1.373 1.348-2.402 0-.686-.674-1.029-1.348-.686l-7.418 4.117c-.674.343-1.011 1.372-1.011 2.401 0 1.029.337 1.372 1.011 1.029zm-15.508 9.263l10.788-6.518c.675-.343 1.349-1.372 1.349-2.401 0-1.03-.674-1.373-1.349-1.03l-10.788 6.519c-.675.343-1.012 1.372-1.012 2.401 0 .686.337 1.372 1.012 1.029zm32.029-53.861l4.72-2.402c.675-.686 1.012-1.715 1.012-2.401 0-1.029-.337-1.372-1.012-1.029l-4.72 2.744c-.674.343-1.011 1.372-1.348 2.402 0 .686.674 1.029 1.348.686zm-15.509 16.124l13.823-8.233c.674-.343 1.349-1.373 1.349-2.402 0-.686-.675-1.372-1.349-.686l-13.823 8.234c-.674.343-1.349 1.372-1.349 2.401 0 .686.675 1.029 1.349.686zm9.103 8.577l4.72-2.745c.675-.343 1.012-1.372 1.012-2.401 0-.686-.337-1.372-1.012-.686l-4.72 2.401c-.674.686-1.348 1.715-1.348 2.402 0 1.029.674 1.372 1.348 1.029zm-31.017 45.971l12.137-7.205c1.011-.343 1.349-1.372 1.349-2.058 0-1.029-.338-1.372-1.012-1.029l-12.474 7.204c-.675.343-1.012 1.372-1.012 2.401 0 .687.337 1.373 1.012.687zm32.366-32.935l3.034-1.715c.674-.343 1.349-1.372 1.349-2.402 0-.686-.675-1.372-1.349-.686l-3.034 1.716c-.675.343-1.012 1.372-1.012 2.401 0 .686.337 1.372 1.012.686zM257.243 329l3.709-2.401c.674-.343 1.349-1.373 1.349-2.402 0-.686-.675-1.372-1.349-.686l-3.372 2.058c-.674.344-1.348 1.373-1.348 2.402 0 1.029.337 1.372 1.011 1.029zm-14.16 8.233l9.777-5.832c.675-.343 1.349-1.372 1.349-2.401 0-.686-.674-1.029-1.349-.686l-9.44 5.489c-.674.343-1.348 1.372-1.348 2.401 0 1.029.337 1.373 1.011 1.029zm10.789.687l7.08-4.117c.674-.343 1.349-1.372 1.349-2.402 0-1.029-.675-1.372-1.349-1.029l-6.743 4.117c-.674.343-1.349 1.372-1.349 2.402 0 1.029.338 1.372 1.012 1.029zm-13.823-26.759l12.137-7.205c.675-.343 1.012-1.372 1.012-2.401.337-.686-.337-1.029-1.012-.686l-12.137 7.204c-.674.343-1.349 1.372-1.349 2.402 0 .686.675 1.029 1.349.686zm.337-7.205l21.24-12.35c.674-.343 1.349-1.373 1.349-2.402 0-1.029-.675-1.372-1.349-1.029l-21.24 12.693c-.675.343-1.349 1.373-1.349 2.402 0 .686.674 1.029 1.349.686zm8.766 8.92l12.137-7.204c.674-.343 1.349-1.373 1.349-2.402 0-1.029-.675-1.372-1.349-1.029l-12.137 7.204c-.675.343-1.349 1.373-1.349 2.402 0 1.029.674 1.372 1.349 1.029zm-18.543 3.773l4.383-2.401c.674-.686 1.348-1.715 1.348-2.401 0-1.03-.674-1.373-1.348-1.03l-4.383 2.402c-.674.686-1.012 1.715-1.012 2.401 0 1.029.338 1.373 1.012 1.029zm15.846 11.665l14.834-8.577c.674-.343 1.012-1.372 1.012-2.401 0-1.03-.338-1.373-1.012-1.03l-14.834 8.577c-.675.343-1.012 1.715-1.349 2.402 0 1.029.674 1.372 1.349 1.029zm10.789-55.234l10.788-6.175c.675-.343 1.349-1.372 1.349-2.401 0-1.03-.674-1.373-1.349-1.03l-10.788 6.519c-.675.343-1.349 1.372-1.349 2.401 0 .686.674 1.372 1.349.686zm-2.698 71.358l12.474-7.204c.674-.343 1.011-1.373 1.011-2.402 0-1.029-.337-1.372-1.011-1.029l-12.474 7.547c-.675.343-1.349 1.373-1.349 2.402 0 .686.674 1.372 1.349.686z" fill="#6097D0"/><path d="M385.696 351.642l5.395-3.087c.337-.343.337-.686 0-.686l-5.058-3.088c-.337-.343-1.011-.343-1.348 0l-5.395 3.088s0 .343.338.686l5.057 3.087h1.011zm-11.126 6.519l5.395-3.088c.337 0 0-.343-.338-.686l-5.057-3.088h-1.011l-5.395 3.088c-.337.343-.337.686 0 .686l5.058 3.088c.337.343 1.011.343 1.348 0zm-11.125 6.518l5.057-3.088c.337 0 .337-.343 0-.686l-5.057-2.745c-.337-.343-1.011-.343-1.349-.343l-5.057 3.088c-.337.343-.337.686 0 .686l5.057 3.088c.338.343 1.012.343 1.349 0zm-11.126 6.861l5.057-3.087c.337-.343.337-.686 0-1.03l-5.057-2.744c-.337-.343-1.012-.343-1.349 0l-5.057 3.088c-.337 0-.337.343 0 .686l5.057 2.744c.337.343 1.012.343 1.349.343z" fill="#8D60F1"/><path d="M231.619 256.27s6.069-3.088 9.778 1.372c3.708 4.803 9.103 15.438 9.103 22.986.337 7.204-5.732 6.861-9.103 5.146-3.709-1.716-13.823-16.811-14.498-19.898-.337-3.088 1.012-6.861 1.686-7.548 1.012-1.029 3.034-2.058 3.034-2.058z" fill="#3C207A"/><path d="M230.272 254.555l-.338 6.518c0 1.372.675 2.745 2.023 3.431 1.012.343 2.36 1.029 4.383.686 4.72-.686 5.057-2.059 5.395-8.577.337-6.175-11.463-2.058-11.463-2.058z" fill="#DFEEFB"/><path d="M253.872 243.92s5.731-3.088 9.44 1.715c3.708 4.46 9.103 15.438 9.44 22.642 0 7.548-5.732 6.862-9.44 5.146-3.372-1.715-13.486-16.81-14.16-19.897-.675-2.745.674-6.862 1.685-7.548l3.035-2.058z" fill="#3C207A"/><path d="M252.523 242.547l-.337 6.176c0 1.372.674 2.744 1.686 3.43 1.011.686 2.697 1.029 4.72.686 4.383-.686 5.057-2.058 5.394-8.233 0-6.518-11.463-2.059-11.463-2.059z" fill="#DFEEFB"/><path d="M198.579 125.905c1.686-29.504 31.355 4.117 31.355 4.117l20.565 20.241 18.206 20.583c3.372 4.117 5.058 9.263 4.383 14.752l-7.417 57.292c-.337 2.745-2.697 4.803-5.394 4.803-.675 0-1.686 0-2.697-.343-6.743-1.029-6.069-7.204-6.069-7.204l1.349-53.518-38.435-23.672s-17.532-7.547-15.846-37.051z" fill="#2C1C50"/><path d="M176.665 136.883c1.686-29.503 31.355 4.46 31.355 4.46l20.228 20.241 18.206 20.584c3.709 3.774 5.395 9.263 4.72 14.752l-7.417 57.292c-.337 2.744-2.697 4.803-5.731 4.803-.675 0-1.686 0-2.698-.343-6.405-1.03-6.068-7.205-6.068-7.205l1.348-53.861-38.434-23.329s-17.532-7.547-15.509-37.394z" fill="#2C1C50"/><path d="M194.196 42.197c-22.589 9.606-22.251 22.985-22.251 22.985s4.383 49.745 3.034 82.679c-.674 14.066 72.15 15.095 61.361-21.956-12.812-43.57-8.092-78.905-13.823-84.051-6.069-5.49-22.589-2.058-28.321.343z" fill="#362067"/><path d="M186.779 54.204c1.348 4.803 7.08 7.205 13.486 5.49 6.068-1.716 10.114-6.862 9.103-11.322-1.349-4.803-7.081-7.204-13.486-5.489-6.069 1.716-10.115 6.518-9.103 11.321z" fill="#F8C7B9"/><path d="M199.928 43.57c1.349 0 3.034 0 4.046.685 2.36 1.03 3.709 2.402 4.383 4.46.337 1.715 0 3.774-1.686 5.832-1.686 1.716-4.046 3.43-6.743 4.117-2.697.686-5.731.686-7.754-.343-2.36-1.03-3.709-2.401-4.383-4.46-.337-1.715.337-3.774 1.686-5.832 1.685-2.058 4.045-3.43 6.743-4.117 1.348-.343 2.36-.343 3.708-.343zm-3.708 17.839c1.348 0 3.034-.343 4.382-.687 3.035-.686 6.069-2.744 7.755-4.803 2.023-2.4 2.697-5.145 2.023-7.89-.675-2.745-2.697-4.803-5.395-5.832-2.697-1.03-6.068-1.372-9.44-.343-3.034.686-5.731 2.401-7.754 4.803-2.023 2.401-2.697 5.146-2.023 7.89.674 2.402 2.697 4.46 5.394 5.832 1.686.687 3.372 1.03 5.058 1.03z" fill="#FEFEFE"/><path d="M202.962 41.168s0 1.03.338 8.233c0 2.059-7.755 4.46-9.778 2.402-2.023-2.058-1.348-4.46-1.685-12.007-.338-7.89 11.125 1.372 11.125 1.372z" fill="#F8C7B9"/><path d="M191.837 39.796S193.86 47 203.3 49.745v-6.519l-11.463-3.43z" fill="#EBA299"/><path d="M185.768 21.613c-2.36 9.263 3.371 18.869 12.474 21.27 9.103 2.402 18.543-3.087 21.24-12.693 2.361-9.263-3.371-18.869-12.474-21.27-9.44-2.402-18.88 3.088-21.24 12.693z" fill="#F8C7B9"/><path d="M198.58 26.416s9.44 4.117 16.183 4.117c6.406.343 5.057-5.49 5.057-5.49L200.266 22.3l-1.686 4.117z" fill="#EBA299"/><path d="M216.785 27.445s-8.429-3.43-15.509-2.058c-2.023.343-3.371 1.372-4.72 2.744-.337.343-.674 1.03-1.348 1.03-1.012.343-3.372-5.146-5.732-5.146-2.36-.343-4.046 1.372-2.023 4.803 2.023 3.43 1.349 7.204.337 7.89-1.011.343-11.125-7.547-2.022-25.387 8.765-17.84 31.354-8.233 34.726-4.46 0 0 3.708 3.088 6.743.343 0 0 3.371 25.387-10.452 20.241z" fill="#492E83"/><path d="M184.757 101.547v13.38c0 1.372.674 2.745 1.685 4.117l26.972 25.044-3.034 4.803-35.738-26.417c-1.686-1.372-2.697-3.087-3.034-5.145l-2.36-23.672 15.509 7.89z" fill="#F8C7B9"/><path d="M173.968 58.664s-8.092 12.35-11.126 45.628c0 0 13.823 4.46 21.914 1.715 7.755-2.401-10.788-47.343-10.788-47.343z" fill="#362067"/><path d="M186.105 74.445s3.372 17.497 3.372 25.73c0 2.059-1.349 4.117-3.372 5.146V74.445z" fill="#492E83"/><path d="M193.186 161.241l6.068-.686 38.435-22.642c1.349-.687 3.371-.687 5.057.343l27.309 15.781 3.372-.343v3.773c0 .343 0 .686-.675 1.029l-43.829 25.73c-1.348.687-3.371.687-4.72 0l-30.006-17.496c-.674-.686-1.011-1.029-1.011-1.715v-3.774z" fill="#8D60F1"/><path d="M222.18 147.175l2.697-1.715h30.344l14.834 8.577 3.372-.343v3.773c0 .343 0 .686-.675 1.029l-43.829 25.73c-.674.344-1.348.687-2.36.687l-4.383-37.738z" fill="#8D60F1"/><path d="M272.078 154.036l1.349-.343v3.774c0 .343 0 .686-.675 1.029l-.674.686v-5.146z" fill="#6097D0"/><path d="M228.586 184.57c-1.349.343-3.035.343-4.046-.344v-6.175h4.046v6.519z" fill="#FEFEFE"/><path d="M228.923 180.796l43.829-25.73c1.348-.686 1.011-2.059-.337-2.745l-29.669-17.496c-1.686-1.029-3.709-1.029-5.057-.343l-43.83 25.73c-1.011.686-1.011 2.058.338 2.744l30.006 17.497c1.348 1.029 3.371 1.029 4.72.343z" fill="#FEFEFE"/><path d="M229.597 176.679l36.412-21.27c1.011-.686 1.011-1.716-.337-2.402l-15.846-8.919c-1.011-.686-3.034-1.03-4.046-.343l-36.412 21.27c-1.011.686-.674 1.715.337 2.401l15.846 9.263c1.349.686 3.035.686 4.046 0z" fill="#DFEEFB"/><path d="M241.06 133.796l.337 3.087c.337 2.745.337 5.146-.337 7.891l-.337 2.744c-.337 1.373-1.686 2.745-3.035 3.088-1.348 0-2.36-.686-2.36-2.059l-1.011-6.518s-1.349 2.402-2.36 2.402c-.674 0 1.011-6.862 2.697-10.292 2.023-3.774 6.406-.343 6.406-.343z" fill="#F8C7B9"/><path d="M226.226 85.08l4.383 9.263c1.348 2.401 2.022 4.803 2.022 7.204l2.023 32.592 6.406-.344 2.697-36.364c0-1.03 0-2.059-.337-3.431l-3.034-18.183-14.16 9.263z" fill="#F8C7B9"/><path d="M230.608 183.197l3.372-4.803 38.772-22.985c1.011-.686 2.023-2.402 2.023-4.117v-32.248l2.36-3.088-2.023-1.029c-.337-.343-1.012-.343-1.686 0l-43.492 25.73c-1.348.686-2.36 2.744-2.36 4.46v34.992c0 1.03.337 1.716 1.012 1.716l2.022 1.372z" fill="#5523C3"/><path d="M257.243 164.672l2.697-1.716 14.835-26.416v-17.496l2.36-3.088-2.023-1.029c-.337-.343-1.012-.343-1.686 0l-43.492 25.73c-.674.343-1.348 1.029-1.686 2.058l28.995 21.957z" fill="#5523C3"/><path d="M276.123 117.328l1.012-1.372-2.023-1.029c-.337-.343-1.012-.343-1.686 0l-.674.686 3.371 1.715z" fill="#6097D0"/><path d="M229.26 141c-.674.686-1.686 2.401-1.686 3.774l4.383 2.401 2.023-3.43-4.72-2.745z" fill="#612BD8"/><path d="M231.957 142.029l43.492-25.73c1.349-.686 2.36 0 2.36 1.716v34.992c0 1.716-1.011 3.431-2.023 4.117l-43.829 26.073c-1.348.686-2.36-.343-2.36-1.715v-34.993c0-1.715 1.012-3.774 2.36-4.46z" fill="#8D60F1"/><path d="M210.379 148.891l.675 1.372c1.011 1.715 2.022 3.087 3.708 4.117l4.383 2.744c1.349.686 3.034 1.029 4.383 0 1.686-1.029 1.686-3.087.674-4.117l-4.72-4.803s2.697 2.059 3.372 1.373c.337-.686-2.697-3.431-4.72-3.774-2.36 0-4.72-1.715-4.72-1.715l-3.035 4.803z" fill="#F8C7B9"/><path d="M221.843 41.854s16.52 18.182 23.263 34.993c0 0-5.394 10.635-19.554 14.752-13.823 4.116-3.709-49.745-3.709-49.745z" fill="#362067"/><path d="M228.923 90.57l-2.697-26.76 6.068 25.044c-1.011.343-2.36 1.03-3.371 1.715z" fill="#492E83"/><path d="M209.369 38.08l4.383-1.372s-2.023 3.43-5.057 4.46c-3.035.686-3.709-2.059-3.709-2.059l4.383-1.029z" fill="#FEFEFE"/><path d="M4.383 214.759l53.27-31.219c1.01-.686 2.022-.686 2.696-.343l5.395 3.088s-2.36 1.029-3.709 1.372v39.453c0 3.087-2.023 6.861-4.383 8.233L6.742 265.19v4.803l-5.056-3.088c-1.012-.686-1.349-1.715-1.349-3.43v-40.482c0-3.088 1.686-6.861 4.046-8.234z" fill="#7545DF"/><path d="M9.777 269.65l53.27-31.219c2.36-1.372 4.045-5.146 4.045-8.234v-40.138c0-3.431-1.686-4.803-4.045-3.431l-53.27 31.219c-2.36 1.372-4.383 5.146-4.383 8.233v40.482c0 3.088 2.023 4.46 4.383 3.088z" fill="#8D60F1"/><path d="M45.177 224.708c0 2.402 1.349 3.088 3.372 2.059 2.023-1.373 3.708-4.117 3.708-6.519 0-2.058-1.685-3.087-3.708-2.058-2.023 1.372-3.372 4.117-3.372 6.518zm-11.125 6.175c0 2.402 1.685 3.431 3.708 2.059 2.023-1.03 3.709-3.774 3.709-6.176 0-2.401-1.686-3.087-3.709-2.058-2.023 1.029-3.708 4.117-3.708 6.175zm-10.789 6.519c0 2.401 1.686 3.087 3.709 2.058 2.022-1.029 3.371-4.117 3.371-6.175 0-2.402-1.349-3.431-3.371-2.059-2.023 1.03-3.71 3.774-3.71 6.176z" fill="#FEFEFE"/><path d="M34.726 164.328l53.27-31.219c1.01-.686 2.022-.686 2.697-.343l5.057 3.088s-2.36.686-3.372 1.372v39.11c0 3.43-2.023 7.204-4.383 8.576l-50.909 29.847v4.46l-5.057-3.088c-1.012-.343-1.686-1.715-1.686-3.43v-40.139c0-3.088 2.023-6.861 4.383-8.234z" fill="#7545DF"/><path d="M40.12 219.219L93.053 188c2.36-1.372 4.383-5.146 4.383-8.577v-40.138c0-3.088-2.023-4.46-4.383-3.088L40.12 167.416c-2.36 1.372-4.383 5.146-4.383 8.234v40.138c0 3.088 2.023 4.803 4.383 3.431z" fill="#8D60F1"/><path d="M75.184 173.934c0 2.402 1.685 3.431 3.708 2.059 2.023-1.029 3.709-3.774 3.709-6.175 0-2.402-1.686-3.431-3.709-2.059-2.023 1.029-3.708 3.774-3.708 6.175zm-10.789 6.519c0 2.401 1.686 3.087 3.708 2.058 2.023-1.029 3.372-4.117 3.372-6.175 0-2.401-1.349-3.431-3.372-2.401-2.022 1.372-3.708 4.116-3.708 6.518zm-10.788 6.175c0 2.401 1.685 3.43 3.708 2.401 1.686-1.372 3.372-4.117 3.372-6.518s-1.686-3.088-3.372-2.058c-2.023 1.029-3.708 4.116-3.708 6.175z" fill="#FEFEFE"/><path d="M143.287 457.993l-18.88-10.978-18.543 10.978 18.543 10.978 18.88-10.978zm-39.783-23.672l-18.88-10.978-18.543 10.978 18.543 10.978 18.88-10.978zM63.72 411.336l-18.542-10.978-18.88 10.978 18.88 10.978 18.543-10.978z" fill="#DFEEFB"/><path d="M84.624 434.321v-58.664l18.88-10.978v58.664l-18.88 10.978z" fill="#C23D28"/><path d="M84.624 375.657L66.08 364.679v58.664l18.543 10.978v-58.664zm0 58.664v-58.664l18.88-10.978v58.664l-18.88 10.978zm39.783 23.672v-32.935l18.88-10.978v32.935l-18.88 10.978z" fill="#7545DF"/><path d="M124.407 425.058l-18.543-10.978v32.935l18.543 10.978v-32.935z" fill="#7545DF"/><path d="M143.287 414.08l-18.88-10.978-18.543 10.978 18.543 10.978 18.88-10.978z" fill="#8D60F1"/><path d="M45.178 411.336v-80.621l18.543-10.978v80.621l-18.543 10.978zm0-80.621l-18.88-10.978v80.621l18.88 10.978v-80.621z" fill="#7545DF"/><path d="M63.72 319.737l-18.542-10.978-18.88 10.978 18.88 10.978 18.543-10.978zm39.784 44.942l-18.88-10.978-18.543 10.978 18.543 10.978 18.88-10.978z" fill="#8D60F1"/></svg>