<svg width="79" height="62" fill="none" xmlns="http://www.w3.org/2000/svg"><path d="M7.539 19.023c.993.7 3.988 2.783 8.985 6.246a2197.35 2197.35 0 0111.484 7.998c.292.205.913.65 1.862 1.337a91.14 91.14 0 002.367 1.666c.628.423 1.388.898 2.28 1.424.89.526 1.731.92 2.52 1.182.79.264 1.52.395 2.192.395h.088c.672 0 1.403-.131 2.192-.395.788-.261 1.63-.657 2.52-1.182a46.341 46.341 0 002.279-1.424 90.928 90.928 0 002.367-1.666c.95-.687 1.57-1.132 1.863-1.337 2.688-1.87 9.526-6.618 20.512-14.245a20.822 20.822 0 005.347-5.391c1.433-2.103 2.148-4.31 2.148-6.618 0-1.929-.694-3.58-2.082-4.953C75.075.686 73.43 0 71.533 0H7.012C4.763 0 3.03.76 1.819 2.279.606 3.799 0 5.698 0 7.977c0 1.84.804 3.835 2.41 5.983 1.607 2.148 3.317 3.835 5.129 5.063z" fill="#fff"/><path d="M74.162 23.712C64.578 30.2 57.302 35.24 52.334 38.834c-1.665 1.227-3.016 2.185-4.054 2.871-1.038.687-2.418 1.388-4.142 2.104-1.724.716-3.33 1.074-4.82 1.074h-.089c-1.49 0-3.098-.358-4.822-1.074-1.723-.716-3.104-1.417-4.142-2.104-1.037-.686-2.388-1.644-4.054-2.87-3.945-2.893-11.206-7.934-21.784-15.123A23.214 23.214 0 010 19.9v34.8c0 1.93.686 3.58 2.06 4.954 1.373 1.373 3.024 2.06 4.953 2.06h64.52c1.928 0 3.58-.687 4.953-2.06 1.373-1.374 2.06-3.024 2.06-4.954V19.9a24.174 24.174 0 01-4.384 3.812z" fill="#fff"/></svg>