<svg width="128" height="102" fill="none" xmlns="http://www.w3.org/2000/svg"><path fill-rule="evenodd" clip-rule="evenodd" d="M122.183 0H5.82A5.82 5.82 0 000 5.82v72.73a5.82 5.82 0 005.82 5.82h111.044c-.074-.065-.152-.125-.229-.185a2.98 2.98 0 01-.291-.243l-8.054-8.058a31.082 31.082 0 01-15.292 4.025A31.005 31.005 0 0173.1 72.74H11.635V11.634h104.73v16.4c5.055 5.706 7.852 12.95 7.852 20.647 0 5.39-1.4 10.646-4.02 15.284L128 71.774V5.817A5.816 5.816 0 00122.183 0zM49.456 61.09V34.909a4.367 4.367 0 014.365-4.366 4.366 4.366 0 014.363 4.366v26.18a4.366 4.366 0 01-4.363 4.366 4.367 4.367 0 01-4.365-4.365zM34.91 40.73v20.363a4.367 4.367 0 004.366 4.365 4.366 4.366 0 004.363-4.365V40.729a4.366 4.366 0 00-4.363-4.365 4.367 4.367 0 00-4.366 4.366zM20.365 61.09V46.543a4.366 4.366 0 018.729 0V61.09a4.367 4.367 0 01-4.366 4.365 4.366 4.366 0 01-4.363-4.365zm7.27 29.094h72.735a5.82 5.82 0 01-.005 11.638h-72.73a5.819 5.819 0 010-11.638zm85.645-23.522a2.57 2.57 0 012.116.738l8.759 8.753a2.607 2.607 0 010 3.68 2.618 2.618 0 01-1.844.757 2.59 2.59 0 01-1.844-.758l-8.75-8.75a2.572 2.572 0 01-.738-2.122l-1.229-1.22c-4.635 4.09-10.507 6.343-16.751 6.343-6.78 0-13.155-2.636-17.954-7.438C70.247 61.85 67.6 55.468 67.6 48.687c0-6.782 2.641-13.16 7.445-17.956 4.8-4.804 11.175-7.443 17.954-7.443 6.79 0 13.165 2.636 17.966 7.443 4.793 4.796 7.432 11.174 7.432 17.956 0 6.237-2.255 12.111-6.34 16.752l1.223 1.223zm-20.281 2.217a20.065 20.065 0 0014.281-5.924 20.064 20.064 0 005.91-14.27c0-5.39-2.102-10.462-5.91-14.275a20.049 20.049 0 00-14.281-5.918 20.059 20.059 0 00-14.271 5.918 20.049 20.049 0 00-5.916 14.274 20.068 20.068 0 005.916 14.277 20.05 20.05 0 0014.27 5.918z" fill="#8D60F1"/></svg>