<svg width="128" height="128" fill="none" xmlns="http://www.w3.org/2000/svg"><path fill-rule="evenodd" clip-rule="evenodd" d="M74.667 112v-5.333A5.336 5.336 0 0180 101.333a5.336 5.336 0 015.333 5.334V112c0 8.837-7.162 16-16 16H16c-8.837 0-16-7.163-16-16V16C0 7.163 7.163 0 16 0h53.333c8.838 0 16 7.163 16 16v5.333A5.335 5.335 0 0180 26.667a5.335 5.335 0 01-5.333-5.334V16a5.335 5.335 0 00-5.334-5.333h-2.666A5.335 5.335 0 0061.333 16 5.335 5.335 0 0156 21.333H29.333A5.335 5.335 0 0124 16a5.335 5.335 0 00-5.333-5.333H16A5.335 5.335 0 0010.667 16v96A5.335 5.335 0 0016 117.333h53.333A5.335 5.335 0 0074.667 112zM128 53.333v-6.666c0-5.147-4.187-9.334-9.334-9.334h-56c-5.146 0-9.333 4.187-9.333 9.334v6.666H128zM53.334 64.001v17.333c0 5.147 4.187 9.333 9.333 9.333h56c5.147 0 9.334-4.186 9.334-9.333V64H53.334z" fill="url(#paint0_radial)"/><defs><radialGradient id="paint0_radial" cx="0" cy="0" r="1" gradientUnits="userSpaceOnUse" gradientTransform="rotate(90 6.667 84) scale(13.3333 37.3331)"><stop stop-color="#8D60F1"/><stop offset="1" stop-color="#8B60EF"/></radialGradient></defs></svg>