<svg width="128" height="128" fill="none" xmlns="http://www.w3.org/2000/svg"><path fill-rule="evenodd" clip-rule="evenodd" d="M88 69.272h-5.333v5.334a5.328 5.328 0 01-5.333 5.333A5.332 5.332 0 0172 74.606v-5.334H56v5.334a5.328 5.328 0 01-5.334 5.333 5.332 5.332 0 01-5.333-5.333v-5.334H40a2.668 2.668 0 01-2.667-2.667V60.36c0-3.563 1.387-6.912 3.904-9.43L48 44.169V29.011a29.47 29.47 0 016.085-17.888L61.888.984c1.008-1.312 3.221-1.312 4.23 0l7.802 10.144A29.474 29.474 0 0180 29.011v15.157l6.762 6.763a13.248 13.248 0 013.904 9.429v6.245A2.664 2.664 0 0188 69.272zm30.667-47.941h-28.8c.533 2.506.8 5.12.8 7.68v2.986h26.666v64H10.667v-64h26.666v-2.986c0-2.56.267-5.174.8-7.68h-28.8C4.213 21.33 0 25.544 0 30.664v66.667c0 5.12 4.213 9.333 9.333 9.333h109.334c5.12 0 9.333-4.213 9.333-9.333V30.664c0-5.12-4.213-9.333-9.333-9.333zm-44 96h10.666a5.332 5.332 0 015.334 5.333 5.332 5.332 0 01-5.334 5.334H42.668a5.336 5.336 0 01-5.334-5.334 5.335 5.335 0 015.334-5.333h10.666v-10.667h21.334v10.667z" fill="#8D60F1"/></svg>